M48
; DRILL file {KiCad 9.0.2} date 2025-12-15T21:57:43+0000
; FORMAT={-:-/ absolute / metric / decimal}
; #@! TF.CreationDate,2025-12-15T21:57:43+00:00
; #@! TF.GenerationSoftware,Kicad,Pcbnew,9.0.2
; #@! TF.FileFunction,Plated,1,2,PTH
FMAT,2
METRIC
; #@! TA.AperFunction,Plated,PTH,ComponentDrill
T1C0.800
; #@! TA.AperFunction,Plated,PTH,ComponentDrill
T2C0.900
; #@! TA.AperFunction,Plated,PTH,ComponentDrill
T3C2.500
%
G90
G05
T1
X153.16Y-69.2
X153.46Y-78.6
X154.16Y-49.9
X154.2Y-59.5
X168.4Y-69.2
X168.7Y-78.6
X169.4Y-49.9
X169.44Y-59.5
X173.9Y-56.3
X173.9Y-58.3
X173.9Y-60.3
X173.9Y-62.3
X173.9Y-64.3
X173.9Y-66.3
X173.9Y-78.5
X173.9Y-80.5
T2
X145.825Y-59.6
X145.825Y-69.2
X145.86Y-50.1
X146.2Y-78.9
X148.365Y-59.6
X148.365Y-69.2
X148.4Y-50.1
X148.74Y-78.9
T3
X139.7Y-47.1
X140.1Y-81.1
X178.9Y-47.4
X179.7Y-81.3
M30
