%TF.GenerationSoftware,KiCad,Pcbnew,9.0.2*%
%TF.CreationDate,2025-12-15T21:59:35+00:00*%
%TF.ProjectId,simulador-semaforo,73696d75-6c61-4646-9f72-2d73656d6166,1.0*%
%TF.SameCoordinates,Original*%
%TF.FileFunction,Legend,Top*%
%TF.FilePolarity,Positive*%
%FSLAX46Y46*%
G04 Gerber Fmt 4.6, Leading zero omitted, Abs format (unit mm)*
G04 Created by KiCad (PCBNEW 9.0.2) date 2025-12-15 21:59:35*
%MOMM*%
%LPD*%
G01*
G04 APERTURE LIST*
%ADD10C,0.100000*%
%ADD11C,0.150000*%
%ADD12C,0.120000*%
G04 APERTURE END LIST*
D10*
X179772419Y-77396115D02*
X178772419Y-77396115D01*
X179772419Y-76967544D02*
X179248609Y-76967544D01*
X179248609Y-76967544D02*
X179153371Y-77015163D01*
X179153371Y-77015163D02*
X179105752Y-77110401D01*
X179105752Y-77110401D02*
X179105752Y-77253258D01*
X179105752Y-77253258D02*
X179153371Y-77348496D01*
X179153371Y-77348496D02*
X179200990Y-77396115D01*
X179105752Y-76634210D02*
X179105752Y-76253258D01*
X178772419Y-76491353D02*
X179629561Y-76491353D01*
X179629561Y-76491353D02*
X179724800Y-76443734D01*
X179724800Y-76443734D02*
X179772419Y-76348496D01*
X179772419Y-76348496D02*
X179772419Y-76253258D01*
X179105752Y-76062781D02*
X179105752Y-75681829D01*
X178772419Y-75919924D02*
X179629561Y-75919924D01*
X179629561Y-75919924D02*
X179724800Y-75872305D01*
X179724800Y-75872305D02*
X179772419Y-75777067D01*
X179772419Y-75777067D02*
X179772419Y-75681829D01*
X179105752Y-75348495D02*
X180105752Y-75348495D01*
X179153371Y-75348495D02*
X179105752Y-75253257D01*
X179105752Y-75253257D02*
X179105752Y-75062781D01*
X179105752Y-75062781D02*
X179153371Y-74967543D01*
X179153371Y-74967543D02*
X179200990Y-74919924D01*
X179200990Y-74919924D02*
X179296228Y-74872305D01*
X179296228Y-74872305D02*
X179581942Y-74872305D01*
X179581942Y-74872305D02*
X179677180Y-74919924D01*
X179677180Y-74919924D02*
X179724800Y-74967543D01*
X179724800Y-74967543D02*
X179772419Y-75062781D01*
X179772419Y-75062781D02*
X179772419Y-75253257D01*
X179772419Y-75253257D02*
X179724800Y-75348495D01*
X179724800Y-74491352D02*
X179772419Y-74396114D01*
X179772419Y-74396114D02*
X179772419Y-74205638D01*
X179772419Y-74205638D02*
X179724800Y-74110400D01*
X179724800Y-74110400D02*
X179629561Y-74062781D01*
X179629561Y-74062781D02*
X179581942Y-74062781D01*
X179581942Y-74062781D02*
X179486704Y-74110400D01*
X179486704Y-74110400D02*
X179439085Y-74205638D01*
X179439085Y-74205638D02*
X179439085Y-74348495D01*
X179439085Y-74348495D02*
X179391466Y-74443733D01*
X179391466Y-74443733D02*
X179296228Y-74491352D01*
X179296228Y-74491352D02*
X179248609Y-74491352D01*
X179248609Y-74491352D02*
X179153371Y-74443733D01*
X179153371Y-74443733D02*
X179105752Y-74348495D01*
X179105752Y-74348495D02*
X179105752Y-74205638D01*
X179105752Y-74205638D02*
X179153371Y-74110400D01*
X179677180Y-73634209D02*
X179724800Y-73586590D01*
X179724800Y-73586590D02*
X179772419Y-73634209D01*
X179772419Y-73634209D02*
X179724800Y-73681828D01*
X179724800Y-73681828D02*
X179677180Y-73634209D01*
X179677180Y-73634209D02*
X179772419Y-73634209D01*
X179153371Y-73634209D02*
X179200990Y-73586590D01*
X179200990Y-73586590D02*
X179248609Y-73634209D01*
X179248609Y-73634209D02*
X179200990Y-73681828D01*
X179200990Y-73681828D02*
X179153371Y-73634209D01*
X179153371Y-73634209D02*
X179248609Y-73634209D01*
X178724800Y-72443734D02*
X180010514Y-73300876D01*
X178724800Y-71396115D02*
X180010514Y-72253257D01*
X179105752Y-71158019D02*
X179772419Y-70967543D01*
X179772419Y-70967543D02*
X179296228Y-70777067D01*
X179296228Y-70777067D02*
X179772419Y-70586591D01*
X179772419Y-70586591D02*
X179105752Y-70396115D01*
X179105752Y-70110400D02*
X179772419Y-69919924D01*
X179772419Y-69919924D02*
X179296228Y-69729448D01*
X179296228Y-69729448D02*
X179772419Y-69538972D01*
X179772419Y-69538972D02*
X179105752Y-69348496D01*
X179105752Y-69062781D02*
X179772419Y-68872305D01*
X179772419Y-68872305D02*
X179296228Y-68681829D01*
X179296228Y-68681829D02*
X179772419Y-68491353D01*
X179772419Y-68491353D02*
X179105752Y-68300877D01*
X179677180Y-67919924D02*
X179724800Y-67872305D01*
X179724800Y-67872305D02*
X179772419Y-67919924D01*
X179772419Y-67919924D02*
X179724800Y-67967543D01*
X179724800Y-67967543D02*
X179677180Y-67919924D01*
X179677180Y-67919924D02*
X179772419Y-67919924D01*
X179772419Y-67443734D02*
X178772419Y-67443734D01*
X179391466Y-67348496D02*
X179772419Y-67062782D01*
X179105752Y-67062782D02*
X179486704Y-67443734D01*
X179772419Y-66634210D02*
X179105752Y-66634210D01*
X178772419Y-66634210D02*
X178820038Y-66681829D01*
X178820038Y-66681829D02*
X178867657Y-66634210D01*
X178867657Y-66634210D02*
X178820038Y-66586591D01*
X178820038Y-66586591D02*
X178772419Y-66634210D01*
X178772419Y-66634210D02*
X178867657Y-66634210D01*
X179105752Y-66300877D02*
X179105752Y-65919925D01*
X178772419Y-66158020D02*
X179629561Y-66158020D01*
X179629561Y-66158020D02*
X179724800Y-66110401D01*
X179724800Y-66110401D02*
X179772419Y-66015163D01*
X179772419Y-66015163D02*
X179772419Y-65919925D01*
X179724800Y-65634210D02*
X179772419Y-65538972D01*
X179772419Y-65538972D02*
X179772419Y-65348496D01*
X179772419Y-65348496D02*
X179724800Y-65253258D01*
X179724800Y-65253258D02*
X179629561Y-65205639D01*
X179629561Y-65205639D02*
X179581942Y-65205639D01*
X179581942Y-65205639D02*
X179486704Y-65253258D01*
X179486704Y-65253258D02*
X179439085Y-65348496D01*
X179439085Y-65348496D02*
X179439085Y-65491353D01*
X179439085Y-65491353D02*
X179391466Y-65586591D01*
X179391466Y-65586591D02*
X179296228Y-65634210D01*
X179296228Y-65634210D02*
X179248609Y-65634210D01*
X179248609Y-65634210D02*
X179153371Y-65586591D01*
X179153371Y-65586591D02*
X179105752Y-65491353D01*
X179105752Y-65491353D02*
X179105752Y-65348496D01*
X179105752Y-65348496D02*
X179153371Y-65253258D01*
X179772419Y-64348496D02*
X178772419Y-64348496D01*
X179724800Y-64348496D02*
X179772419Y-64443734D01*
X179772419Y-64443734D02*
X179772419Y-64634210D01*
X179772419Y-64634210D02*
X179724800Y-64729448D01*
X179724800Y-64729448D02*
X179677180Y-64777067D01*
X179677180Y-64777067D02*
X179581942Y-64824686D01*
X179581942Y-64824686D02*
X179296228Y-64824686D01*
X179296228Y-64824686D02*
X179200990Y-64777067D01*
X179200990Y-64777067D02*
X179153371Y-64729448D01*
X179153371Y-64729448D02*
X179105752Y-64634210D01*
X179105752Y-64634210D02*
X179105752Y-64443734D01*
X179105752Y-64443734D02*
X179153371Y-64348496D01*
X179724800Y-63491353D02*
X179772419Y-63586591D01*
X179772419Y-63586591D02*
X179772419Y-63777067D01*
X179772419Y-63777067D02*
X179724800Y-63872305D01*
X179724800Y-63872305D02*
X179629561Y-63919924D01*
X179629561Y-63919924D02*
X179248609Y-63919924D01*
X179248609Y-63919924D02*
X179153371Y-63872305D01*
X179153371Y-63872305D02*
X179105752Y-63777067D01*
X179105752Y-63777067D02*
X179105752Y-63586591D01*
X179105752Y-63586591D02*
X179153371Y-63491353D01*
X179153371Y-63491353D02*
X179248609Y-63443734D01*
X179248609Y-63443734D02*
X179343847Y-63443734D01*
X179343847Y-63443734D02*
X179439085Y-63919924D01*
X179724800Y-62634210D02*
X179772419Y-62729448D01*
X179772419Y-62729448D02*
X179772419Y-62919924D01*
X179772419Y-62919924D02*
X179724800Y-63015162D01*
X179724800Y-63015162D02*
X179629561Y-63062781D01*
X179629561Y-63062781D02*
X179248609Y-63062781D01*
X179248609Y-63062781D02*
X179153371Y-63015162D01*
X179153371Y-63015162D02*
X179105752Y-62919924D01*
X179105752Y-62919924D02*
X179105752Y-62729448D01*
X179105752Y-62729448D02*
X179153371Y-62634210D01*
X179153371Y-62634210D02*
X179248609Y-62586591D01*
X179248609Y-62586591D02*
X179343847Y-62586591D01*
X179343847Y-62586591D02*
X179439085Y-63062781D01*
X179772419Y-62015162D02*
X179724800Y-62110400D01*
X179724800Y-62110400D02*
X179629561Y-62158019D01*
X179629561Y-62158019D02*
X178772419Y-62158019D01*
X179724800Y-61253257D02*
X179772419Y-61348495D01*
X179772419Y-61348495D02*
X179772419Y-61538971D01*
X179772419Y-61538971D02*
X179724800Y-61634209D01*
X179724800Y-61634209D02*
X179629561Y-61681828D01*
X179629561Y-61681828D02*
X179248609Y-61681828D01*
X179248609Y-61681828D02*
X179153371Y-61634209D01*
X179153371Y-61634209D02*
X179105752Y-61538971D01*
X179105752Y-61538971D02*
X179105752Y-61348495D01*
X179105752Y-61348495D02*
X179153371Y-61253257D01*
X179153371Y-61253257D02*
X179248609Y-61205638D01*
X179248609Y-61205638D02*
X179343847Y-61205638D01*
X179343847Y-61205638D02*
X179439085Y-61681828D01*
X179724800Y-60348495D02*
X179772419Y-60443733D01*
X179772419Y-60443733D02*
X179772419Y-60634209D01*
X179772419Y-60634209D02*
X179724800Y-60729447D01*
X179724800Y-60729447D02*
X179677180Y-60777066D01*
X179677180Y-60777066D02*
X179581942Y-60824685D01*
X179581942Y-60824685D02*
X179296228Y-60824685D01*
X179296228Y-60824685D02*
X179200990Y-60777066D01*
X179200990Y-60777066D02*
X179153371Y-60729447D01*
X179153371Y-60729447D02*
X179105752Y-60634209D01*
X179105752Y-60634209D02*
X179105752Y-60443733D01*
X179105752Y-60443733D02*
X179153371Y-60348495D01*
X179105752Y-60062780D02*
X179105752Y-59681828D01*
X178772419Y-59919923D02*
X179629561Y-59919923D01*
X179629561Y-59919923D02*
X179724800Y-59872304D01*
X179724800Y-59872304D02*
X179772419Y-59777066D01*
X179772419Y-59777066D02*
X179772419Y-59681828D01*
X179772419Y-59348494D02*
X179105752Y-59348494D01*
X179296228Y-59348494D02*
X179200990Y-59300875D01*
X179200990Y-59300875D02*
X179153371Y-59253256D01*
X179153371Y-59253256D02*
X179105752Y-59158018D01*
X179105752Y-59158018D02*
X179105752Y-59062780D01*
X179772419Y-58586589D02*
X179724800Y-58681827D01*
X179724800Y-58681827D02*
X179677180Y-58729446D01*
X179677180Y-58729446D02*
X179581942Y-58777065D01*
X179581942Y-58777065D02*
X179296228Y-58777065D01*
X179296228Y-58777065D02*
X179200990Y-58729446D01*
X179200990Y-58729446D02*
X179153371Y-58681827D01*
X179153371Y-58681827D02*
X179105752Y-58586589D01*
X179105752Y-58586589D02*
X179105752Y-58443732D01*
X179105752Y-58443732D02*
X179153371Y-58348494D01*
X179153371Y-58348494D02*
X179200990Y-58300875D01*
X179200990Y-58300875D02*
X179296228Y-58253256D01*
X179296228Y-58253256D02*
X179581942Y-58253256D01*
X179581942Y-58253256D02*
X179677180Y-58300875D01*
X179677180Y-58300875D02*
X179724800Y-58348494D01*
X179724800Y-58348494D02*
X179772419Y-58443732D01*
X179772419Y-58443732D02*
X179772419Y-58586589D01*
X179105752Y-57824684D02*
X179772419Y-57824684D01*
X179200990Y-57824684D02*
X179153371Y-57777065D01*
X179153371Y-57777065D02*
X179105752Y-57681827D01*
X179105752Y-57681827D02*
X179105752Y-57538970D01*
X179105752Y-57538970D02*
X179153371Y-57443732D01*
X179153371Y-57443732D02*
X179248609Y-57396113D01*
X179248609Y-57396113D02*
X179772419Y-57396113D01*
X179772419Y-56919922D02*
X179105752Y-56919922D01*
X178772419Y-56919922D02*
X178820038Y-56967541D01*
X178820038Y-56967541D02*
X178867657Y-56919922D01*
X178867657Y-56919922D02*
X178820038Y-56872303D01*
X178820038Y-56872303D02*
X178772419Y-56919922D01*
X178772419Y-56919922D02*
X178867657Y-56919922D01*
X179724800Y-56015161D02*
X179772419Y-56110399D01*
X179772419Y-56110399D02*
X179772419Y-56300875D01*
X179772419Y-56300875D02*
X179724800Y-56396113D01*
X179724800Y-56396113D02*
X179677180Y-56443732D01*
X179677180Y-56443732D02*
X179581942Y-56491351D01*
X179581942Y-56491351D02*
X179296228Y-56491351D01*
X179296228Y-56491351D02*
X179200990Y-56443732D01*
X179200990Y-56443732D02*
X179153371Y-56396113D01*
X179153371Y-56396113D02*
X179105752Y-56300875D01*
X179105752Y-56300875D02*
X179105752Y-56110399D01*
X179105752Y-56110399D02*
X179153371Y-56015161D01*
X179772419Y-55158018D02*
X179248609Y-55158018D01*
X179248609Y-55158018D02*
X179153371Y-55205637D01*
X179153371Y-55205637D02*
X179105752Y-55300875D01*
X179105752Y-55300875D02*
X179105752Y-55491351D01*
X179105752Y-55491351D02*
X179153371Y-55586589D01*
X179724800Y-55158018D02*
X179772419Y-55253256D01*
X179772419Y-55253256D02*
X179772419Y-55491351D01*
X179772419Y-55491351D02*
X179724800Y-55586589D01*
X179724800Y-55586589D02*
X179629561Y-55634208D01*
X179629561Y-55634208D02*
X179534323Y-55634208D01*
X179534323Y-55634208D02*
X179439085Y-55586589D01*
X179439085Y-55586589D02*
X179391466Y-55491351D01*
X179391466Y-55491351D02*
X179391466Y-55253256D01*
X179391466Y-55253256D02*
X179343847Y-55158018D01*
X179677180Y-54681827D02*
X179724800Y-54634208D01*
X179724800Y-54634208D02*
X179772419Y-54681827D01*
X179772419Y-54681827D02*
X179724800Y-54729446D01*
X179724800Y-54729446D02*
X179677180Y-54681827D01*
X179677180Y-54681827D02*
X179772419Y-54681827D01*
X179724800Y-53777066D02*
X179772419Y-53872304D01*
X179772419Y-53872304D02*
X179772419Y-54062780D01*
X179772419Y-54062780D02*
X179724800Y-54158018D01*
X179724800Y-54158018D02*
X179677180Y-54205637D01*
X179677180Y-54205637D02*
X179581942Y-54253256D01*
X179581942Y-54253256D02*
X179296228Y-54253256D01*
X179296228Y-54253256D02*
X179200990Y-54205637D01*
X179200990Y-54205637D02*
X179153371Y-54158018D01*
X179153371Y-54158018D02*
X179105752Y-54062780D01*
X179105752Y-54062780D02*
X179105752Y-53872304D01*
X179105752Y-53872304D02*
X179153371Y-53777066D01*
X179772419Y-53205637D02*
X179724800Y-53300875D01*
X179724800Y-53300875D02*
X179677180Y-53348494D01*
X179677180Y-53348494D02*
X179581942Y-53396113D01*
X179581942Y-53396113D02*
X179296228Y-53396113D01*
X179296228Y-53396113D02*
X179200990Y-53348494D01*
X179200990Y-53348494D02*
X179153371Y-53300875D01*
X179153371Y-53300875D02*
X179105752Y-53205637D01*
X179105752Y-53205637D02*
X179105752Y-53062780D01*
X179105752Y-53062780D02*
X179153371Y-52967542D01*
X179153371Y-52967542D02*
X179200990Y-52919923D01*
X179200990Y-52919923D02*
X179296228Y-52872304D01*
X179296228Y-52872304D02*
X179581942Y-52872304D01*
X179581942Y-52872304D02*
X179677180Y-52919923D01*
X179677180Y-52919923D02*
X179724800Y-52967542D01*
X179724800Y-52967542D02*
X179772419Y-53062780D01*
X179772419Y-53062780D02*
X179772419Y-53205637D01*
X179772419Y-52443732D02*
X179105752Y-52443732D01*
X179200990Y-52443732D02*
X179153371Y-52396113D01*
X179153371Y-52396113D02*
X179105752Y-52300875D01*
X179105752Y-52300875D02*
X179105752Y-52158018D01*
X179105752Y-52158018D02*
X179153371Y-52062780D01*
X179153371Y-52062780D02*
X179248609Y-52015161D01*
X179248609Y-52015161D02*
X179772419Y-52015161D01*
X179248609Y-52015161D02*
X179153371Y-51967542D01*
X179153371Y-51967542D02*
X179105752Y-51872304D01*
X179105752Y-51872304D02*
X179105752Y-51729447D01*
X179105752Y-51729447D02*
X179153371Y-51634208D01*
X179153371Y-51634208D02*
X179248609Y-51586589D01*
X179248609Y-51586589D02*
X179772419Y-51586589D01*
X181972419Y-69396115D02*
X180972419Y-69396115D01*
X181972419Y-68824687D02*
X181400990Y-69253258D01*
X180972419Y-68824687D02*
X181543847Y-69396115D01*
X181972419Y-68396115D02*
X180972419Y-68396115D01*
X180972419Y-68062782D02*
X180972419Y-67491354D01*
X181972419Y-67777068D02*
X180972419Y-67777068D01*
X180972419Y-66967544D02*
X180972419Y-66872306D01*
X180972419Y-66872306D02*
X181020038Y-66777068D01*
X181020038Y-66777068D02*
X181067657Y-66729449D01*
X181067657Y-66729449D02*
X181162895Y-66681830D01*
X181162895Y-66681830D02*
X181353371Y-66634211D01*
X181353371Y-66634211D02*
X181591466Y-66634211D01*
X181591466Y-66634211D02*
X181781942Y-66681830D01*
X181781942Y-66681830D02*
X181877180Y-66729449D01*
X181877180Y-66729449D02*
X181924800Y-66777068D01*
X181924800Y-66777068D02*
X181972419Y-66872306D01*
X181972419Y-66872306D02*
X181972419Y-66967544D01*
X181972419Y-66967544D02*
X181924800Y-67062782D01*
X181924800Y-67062782D02*
X181877180Y-67110401D01*
X181877180Y-67110401D02*
X181781942Y-67158020D01*
X181781942Y-67158020D02*
X181591466Y-67205639D01*
X181591466Y-67205639D02*
X181353371Y-67205639D01*
X181353371Y-67205639D02*
X181162895Y-67158020D01*
X181162895Y-67158020D02*
X181067657Y-67110401D01*
X181067657Y-67110401D02*
X181020038Y-67062782D01*
X181020038Y-67062782D02*
X180972419Y-66967544D01*
X180972419Y-66015163D02*
X180972419Y-65919925D01*
X180972419Y-65919925D02*
X181020038Y-65824687D01*
X181020038Y-65824687D02*
X181067657Y-65777068D01*
X181067657Y-65777068D02*
X181162895Y-65729449D01*
X181162895Y-65729449D02*
X181353371Y-65681830D01*
X181353371Y-65681830D02*
X181591466Y-65681830D01*
X181591466Y-65681830D02*
X181781942Y-65729449D01*
X181781942Y-65729449D02*
X181877180Y-65777068D01*
X181877180Y-65777068D02*
X181924800Y-65824687D01*
X181924800Y-65824687D02*
X181972419Y-65919925D01*
X181972419Y-65919925D02*
X181972419Y-66015163D01*
X181972419Y-66015163D02*
X181924800Y-66110401D01*
X181924800Y-66110401D02*
X181877180Y-66158020D01*
X181877180Y-66158020D02*
X181781942Y-66205639D01*
X181781942Y-66205639D02*
X181591466Y-66253258D01*
X181591466Y-66253258D02*
X181353371Y-66253258D01*
X181353371Y-66253258D02*
X181162895Y-66205639D01*
X181162895Y-66205639D02*
X181067657Y-66158020D01*
X181067657Y-66158020D02*
X181020038Y-66110401D01*
X181020038Y-66110401D02*
X180972419Y-66015163D01*
X181972419Y-64729449D02*
X181972419Y-65300877D01*
X181972419Y-65015163D02*
X180972419Y-65015163D01*
X180972419Y-65015163D02*
X181115276Y-65110401D01*
X181115276Y-65110401D02*
X181210514Y-65205639D01*
X181210514Y-65205639D02*
X181258133Y-65300877D01*
X181591466Y-63538972D02*
X181591466Y-62777068D01*
X180972419Y-61681829D02*
X181972419Y-61348496D01*
X181972419Y-61348496D02*
X180972419Y-61015163D01*
X181972419Y-60158020D02*
X181972419Y-60729448D01*
X181972419Y-60443734D02*
X180972419Y-60443734D01*
X180972419Y-60443734D02*
X181115276Y-60538972D01*
X181115276Y-60538972D02*
X181210514Y-60634210D01*
X181210514Y-60634210D02*
X181258133Y-60729448D01*
X181877180Y-59729448D02*
X181924800Y-59681829D01*
X181924800Y-59681829D02*
X181972419Y-59729448D01*
X181972419Y-59729448D02*
X181924800Y-59777067D01*
X181924800Y-59777067D02*
X181877180Y-59729448D01*
X181877180Y-59729448D02*
X181972419Y-59729448D01*
X180972419Y-59062782D02*
X180972419Y-58967544D01*
X180972419Y-58967544D02*
X181020038Y-58872306D01*
X181020038Y-58872306D02*
X181067657Y-58824687D01*
X181067657Y-58824687D02*
X181162895Y-58777068D01*
X181162895Y-58777068D02*
X181353371Y-58729449D01*
X181353371Y-58729449D02*
X181591466Y-58729449D01*
X181591466Y-58729449D02*
X181781942Y-58777068D01*
X181781942Y-58777068D02*
X181877180Y-58824687D01*
X181877180Y-58824687D02*
X181924800Y-58872306D01*
X181924800Y-58872306D02*
X181972419Y-58967544D01*
X181972419Y-58967544D02*
X181972419Y-59062782D01*
X181972419Y-59062782D02*
X181924800Y-59158020D01*
X181924800Y-59158020D02*
X181877180Y-59205639D01*
X181877180Y-59205639D02*
X181781942Y-59253258D01*
X181781942Y-59253258D02*
X181591466Y-59300877D01*
X181591466Y-59300877D02*
X181353371Y-59300877D01*
X181353371Y-59300877D02*
X181162895Y-59253258D01*
X181162895Y-59253258D02*
X181067657Y-59205639D01*
X181067657Y-59205639D02*
X181020038Y-59158020D01*
X181020038Y-59158020D02*
X180972419Y-59062782D01*
X152403884Y-84572419D02*
X152403884Y-83572419D01*
X152975312Y-84572419D02*
X152546741Y-84000990D01*
X152975312Y-83572419D02*
X152403884Y-84143847D01*
X153403884Y-84572419D02*
X153403884Y-83572419D01*
X153737217Y-83572419D02*
X154308645Y-83572419D01*
X154022931Y-84572419D02*
X154022931Y-83572419D01*
X154594360Y-84524800D02*
X154737217Y-84572419D01*
X154737217Y-84572419D02*
X154975312Y-84572419D01*
X154975312Y-84572419D02*
X155070550Y-84524800D01*
X155070550Y-84524800D02*
X155118169Y-84477180D01*
X155118169Y-84477180D02*
X155165788Y-84381942D01*
X155165788Y-84381942D02*
X155165788Y-84286704D01*
X155165788Y-84286704D02*
X155118169Y-84191466D01*
X155118169Y-84191466D02*
X155070550Y-84143847D01*
X155070550Y-84143847D02*
X154975312Y-84096228D01*
X154975312Y-84096228D02*
X154784836Y-84048609D01*
X154784836Y-84048609D02*
X154689598Y-84000990D01*
X154689598Y-84000990D02*
X154641979Y-83953371D01*
X154641979Y-83953371D02*
X154594360Y-83858133D01*
X154594360Y-83858133D02*
X154594360Y-83762895D01*
X154594360Y-83762895D02*
X154641979Y-83667657D01*
X154641979Y-83667657D02*
X154689598Y-83620038D01*
X154689598Y-83620038D02*
X154784836Y-83572419D01*
X154784836Y-83572419D02*
X155022931Y-83572419D01*
X155022931Y-83572419D02*
X155165788Y-83620038D01*
X156356265Y-84572419D02*
X156356265Y-83572419D01*
X156356265Y-83572419D02*
X156594360Y-83572419D01*
X156594360Y-83572419D02*
X156737217Y-83620038D01*
X156737217Y-83620038D02*
X156832455Y-83715276D01*
X156832455Y-83715276D02*
X156880074Y-83810514D01*
X156880074Y-83810514D02*
X156927693Y-84000990D01*
X156927693Y-84000990D02*
X156927693Y-84143847D01*
X156927693Y-84143847D02*
X156880074Y-84334323D01*
X156880074Y-84334323D02*
X156832455Y-84429561D01*
X156832455Y-84429561D02*
X156737217Y-84524800D01*
X156737217Y-84524800D02*
X156594360Y-84572419D01*
X156594360Y-84572419D02*
X156356265Y-84572419D01*
X157356265Y-84048609D02*
X157689598Y-84048609D01*
X157832455Y-84572419D02*
X157356265Y-84572419D01*
X157356265Y-84572419D02*
X157356265Y-83572419D01*
X157356265Y-83572419D02*
X157832455Y-83572419D01*
X159022932Y-84048609D02*
X159356265Y-84048609D01*
X159499122Y-84572419D02*
X159022932Y-84572419D01*
X159022932Y-84572419D02*
X159022932Y-83572419D01*
X159022932Y-83572419D02*
X159499122Y-83572419D01*
X160403884Y-84572419D02*
X159927694Y-84572419D01*
X159927694Y-84572419D02*
X159927694Y-83572419D01*
X160737218Y-84048609D02*
X161070551Y-84048609D01*
X161213408Y-84572419D02*
X160737218Y-84572419D01*
X160737218Y-84572419D02*
X160737218Y-83572419D01*
X160737218Y-83572419D02*
X161213408Y-83572419D01*
X162213408Y-84477180D02*
X162165789Y-84524800D01*
X162165789Y-84524800D02*
X162022932Y-84572419D01*
X162022932Y-84572419D02*
X161927694Y-84572419D01*
X161927694Y-84572419D02*
X161784837Y-84524800D01*
X161784837Y-84524800D02*
X161689599Y-84429561D01*
X161689599Y-84429561D02*
X161641980Y-84334323D01*
X161641980Y-84334323D02*
X161594361Y-84143847D01*
X161594361Y-84143847D02*
X161594361Y-84000990D01*
X161594361Y-84000990D02*
X161641980Y-83810514D01*
X161641980Y-83810514D02*
X161689599Y-83715276D01*
X161689599Y-83715276D02*
X161784837Y-83620038D01*
X161784837Y-83620038D02*
X161927694Y-83572419D01*
X161927694Y-83572419D02*
X162022932Y-83572419D01*
X162022932Y-83572419D02*
X162165789Y-83620038D01*
X162165789Y-83620038D02*
X162213408Y-83667657D01*
X162499123Y-83572419D02*
X163070551Y-83572419D01*
X162784837Y-84572419D02*
X162784837Y-83572419D01*
X163975313Y-84572419D02*
X163641980Y-84096228D01*
X163403885Y-84572419D02*
X163403885Y-83572419D01*
X163403885Y-83572419D02*
X163784837Y-83572419D01*
X163784837Y-83572419D02*
X163880075Y-83620038D01*
X163880075Y-83620038D02*
X163927694Y-83667657D01*
X163927694Y-83667657D02*
X163975313Y-83762895D01*
X163975313Y-83762895D02*
X163975313Y-83905752D01*
X163975313Y-83905752D02*
X163927694Y-84000990D01*
X163927694Y-84000990D02*
X163880075Y-84048609D01*
X163880075Y-84048609D02*
X163784837Y-84096228D01*
X163784837Y-84096228D02*
X163403885Y-84096228D01*
X164594361Y-83572419D02*
X164784837Y-83572419D01*
X164784837Y-83572419D02*
X164880075Y-83620038D01*
X164880075Y-83620038D02*
X164975313Y-83715276D01*
X164975313Y-83715276D02*
X165022932Y-83905752D01*
X165022932Y-83905752D02*
X165022932Y-84239085D01*
X165022932Y-84239085D02*
X164975313Y-84429561D01*
X164975313Y-84429561D02*
X164880075Y-84524800D01*
X164880075Y-84524800D02*
X164784837Y-84572419D01*
X164784837Y-84572419D02*
X164594361Y-84572419D01*
X164594361Y-84572419D02*
X164499123Y-84524800D01*
X164499123Y-84524800D02*
X164403885Y-84429561D01*
X164403885Y-84429561D02*
X164356266Y-84239085D01*
X164356266Y-84239085D02*
X164356266Y-83905752D01*
X164356266Y-83905752D02*
X164403885Y-83715276D01*
X164403885Y-83715276D02*
X164499123Y-83620038D01*
X164499123Y-83620038D02*
X164594361Y-83572419D01*
X165451504Y-84572419D02*
X165451504Y-83572419D01*
X165451504Y-83572419D02*
X166022932Y-84572419D01*
X166022932Y-84572419D02*
X166022932Y-83572419D01*
X166499123Y-84572419D02*
X166499123Y-83572419D01*
X167546741Y-84477180D02*
X167499122Y-84524800D01*
X167499122Y-84524800D02*
X167356265Y-84572419D01*
X167356265Y-84572419D02*
X167261027Y-84572419D01*
X167261027Y-84572419D02*
X167118170Y-84524800D01*
X167118170Y-84524800D02*
X167022932Y-84429561D01*
X167022932Y-84429561D02*
X166975313Y-84334323D01*
X166975313Y-84334323D02*
X166927694Y-84143847D01*
X166927694Y-84143847D02*
X166927694Y-84000990D01*
X166927694Y-84000990D02*
X166975313Y-83810514D01*
X166975313Y-83810514D02*
X167022932Y-83715276D01*
X167022932Y-83715276D02*
X167118170Y-83620038D01*
X167118170Y-83620038D02*
X167261027Y-83572419D01*
X167261027Y-83572419D02*
X167356265Y-83572419D01*
X167356265Y-83572419D02*
X167499122Y-83620038D01*
X167499122Y-83620038D02*
X167546741Y-83667657D01*
X167927694Y-84286704D02*
X168403884Y-84286704D01*
X167832456Y-84572419D02*
X168165789Y-83572419D01*
X168165789Y-83572419D02*
X168499122Y-84572419D01*
D11*
X160913333Y-81424819D02*
X160580000Y-80948628D01*
X160341905Y-81424819D02*
X160341905Y-80424819D01*
X160341905Y-80424819D02*
X160722857Y-80424819D01*
X160722857Y-80424819D02*
X160818095Y-80472438D01*
X160818095Y-80472438D02*
X160865714Y-80520057D01*
X160865714Y-80520057D02*
X160913333Y-80615295D01*
X160913333Y-80615295D02*
X160913333Y-80758152D01*
X160913333Y-80758152D02*
X160865714Y-80853390D01*
X160865714Y-80853390D02*
X160818095Y-80901009D01*
X160818095Y-80901009D02*
X160722857Y-80948628D01*
X160722857Y-80948628D02*
X160341905Y-80948628D01*
X161770476Y-80758152D02*
X161770476Y-81424819D01*
X161532381Y-80377200D02*
X161294286Y-81091485D01*
X161294286Y-81091485D02*
X161913333Y-81091485D01*
X161613333Y-52724819D02*
X161280000Y-52248628D01*
X161041905Y-52724819D02*
X161041905Y-51724819D01*
X161041905Y-51724819D02*
X161422857Y-51724819D01*
X161422857Y-51724819D02*
X161518095Y-51772438D01*
X161518095Y-51772438D02*
X161565714Y-51820057D01*
X161565714Y-51820057D02*
X161613333Y-51915295D01*
X161613333Y-51915295D02*
X161613333Y-52058152D01*
X161613333Y-52058152D02*
X161565714Y-52153390D01*
X161565714Y-52153390D02*
X161518095Y-52201009D01*
X161518095Y-52201009D02*
X161422857Y-52248628D01*
X161422857Y-52248628D02*
X161041905Y-52248628D01*
X161946667Y-51724819D02*
X162565714Y-51724819D01*
X162565714Y-51724819D02*
X162232381Y-52105771D01*
X162232381Y-52105771D02*
X162375238Y-52105771D01*
X162375238Y-52105771D02*
X162470476Y-52153390D01*
X162470476Y-52153390D02*
X162518095Y-52201009D01*
X162518095Y-52201009D02*
X162565714Y-52296247D01*
X162565714Y-52296247D02*
X162565714Y-52534342D01*
X162565714Y-52534342D02*
X162518095Y-52629580D01*
X162518095Y-52629580D02*
X162470476Y-52677200D01*
X162470476Y-52677200D02*
X162375238Y-52724819D01*
X162375238Y-52724819D02*
X162089524Y-52724819D01*
X162089524Y-52724819D02*
X161994286Y-52677200D01*
X161994286Y-52677200D02*
X161946667Y-52629580D01*
X161653333Y-62324819D02*
X161320000Y-61848628D01*
X161081905Y-62324819D02*
X161081905Y-61324819D01*
X161081905Y-61324819D02*
X161462857Y-61324819D01*
X161462857Y-61324819D02*
X161558095Y-61372438D01*
X161558095Y-61372438D02*
X161605714Y-61420057D01*
X161605714Y-61420057D02*
X161653333Y-61515295D01*
X161653333Y-61515295D02*
X161653333Y-61658152D01*
X161653333Y-61658152D02*
X161605714Y-61753390D01*
X161605714Y-61753390D02*
X161558095Y-61801009D01*
X161558095Y-61801009D02*
X161462857Y-61848628D01*
X161462857Y-61848628D02*
X161081905Y-61848628D01*
X162034286Y-61420057D02*
X162081905Y-61372438D01*
X162081905Y-61372438D02*
X162177143Y-61324819D01*
X162177143Y-61324819D02*
X162415238Y-61324819D01*
X162415238Y-61324819D02*
X162510476Y-61372438D01*
X162510476Y-61372438D02*
X162558095Y-61420057D01*
X162558095Y-61420057D02*
X162605714Y-61515295D01*
X162605714Y-61515295D02*
X162605714Y-61610533D01*
X162605714Y-61610533D02*
X162558095Y-61753390D01*
X162558095Y-61753390D02*
X161986667Y-62324819D01*
X161986667Y-62324819D02*
X162605714Y-62324819D01*
X160613333Y-72024819D02*
X160280000Y-71548628D01*
X160041905Y-72024819D02*
X160041905Y-71024819D01*
X160041905Y-71024819D02*
X160422857Y-71024819D01*
X160422857Y-71024819D02*
X160518095Y-71072438D01*
X160518095Y-71072438D02*
X160565714Y-71120057D01*
X160565714Y-71120057D02*
X160613333Y-71215295D01*
X160613333Y-71215295D02*
X160613333Y-71358152D01*
X160613333Y-71358152D02*
X160565714Y-71453390D01*
X160565714Y-71453390D02*
X160518095Y-71501009D01*
X160518095Y-71501009D02*
X160422857Y-71548628D01*
X160422857Y-71548628D02*
X160041905Y-71548628D01*
X161565714Y-72024819D02*
X160994286Y-72024819D01*
X161280000Y-72024819D02*
X161280000Y-71024819D01*
X161280000Y-71024819D02*
X161184762Y-71167676D01*
X161184762Y-71167676D02*
X161089524Y-71262914D01*
X161089524Y-71262914D02*
X160994286Y-71310533D01*
X173257142Y-76844819D02*
X172780952Y-76844819D01*
X172780952Y-76844819D02*
X172780952Y-75844819D01*
X173542857Y-76797200D02*
X173685714Y-76844819D01*
X173685714Y-76844819D02*
X173923809Y-76844819D01*
X173923809Y-76844819D02*
X174019047Y-76797200D01*
X174019047Y-76797200D02*
X174066666Y-76749580D01*
X174066666Y-76749580D02*
X174114285Y-76654342D01*
X174114285Y-76654342D02*
X174114285Y-76559104D01*
X174114285Y-76559104D02*
X174066666Y-76463866D01*
X174066666Y-76463866D02*
X174019047Y-76416247D01*
X174019047Y-76416247D02*
X173923809Y-76368628D01*
X173923809Y-76368628D02*
X173733333Y-76321009D01*
X173733333Y-76321009D02*
X173638095Y-76273390D01*
X173638095Y-76273390D02*
X173590476Y-76225771D01*
X173590476Y-76225771D02*
X173542857Y-76130533D01*
X173542857Y-76130533D02*
X173542857Y-76035295D01*
X173542857Y-76035295D02*
X173590476Y-75940057D01*
X173590476Y-75940057D02*
X173638095Y-75892438D01*
X173638095Y-75892438D02*
X173733333Y-75844819D01*
X173733333Y-75844819D02*
X173971428Y-75844819D01*
X173971428Y-75844819D02*
X174114285Y-75892438D01*
X175066666Y-76844819D02*
X174495238Y-76844819D01*
X174780952Y-76844819D02*
X174780952Y-75844819D01*
X174780952Y-75844819D02*
X174685714Y-75987676D01*
X174685714Y-75987676D02*
X174590476Y-76082914D01*
X174590476Y-76082914D02*
X174495238Y-76130533D01*
X173566666Y-67864819D02*
X173566666Y-68579104D01*
X173566666Y-68579104D02*
X173519047Y-68721961D01*
X173519047Y-68721961D02*
X173423809Y-68817200D01*
X173423809Y-68817200D02*
X173280952Y-68864819D01*
X173280952Y-68864819D02*
X173185714Y-68864819D01*
X174566666Y-68864819D02*
X173995238Y-68864819D01*
X174280952Y-68864819D02*
X174280952Y-67864819D01*
X174280952Y-67864819D02*
X174185714Y-68007676D01*
X174185714Y-68007676D02*
X174090476Y-68102914D01*
X174090476Y-68102914D02*
X173995238Y-68150533D01*
X146731905Y-75394819D02*
X146731905Y-74394819D01*
X146731905Y-74394819D02*
X146970000Y-74394819D01*
X146970000Y-74394819D02*
X147112857Y-74442438D01*
X147112857Y-74442438D02*
X147208095Y-74537676D01*
X147208095Y-74537676D02*
X147255714Y-74632914D01*
X147255714Y-74632914D02*
X147303333Y-74823390D01*
X147303333Y-74823390D02*
X147303333Y-74966247D01*
X147303333Y-74966247D02*
X147255714Y-75156723D01*
X147255714Y-75156723D02*
X147208095Y-75251961D01*
X147208095Y-75251961D02*
X147112857Y-75347200D01*
X147112857Y-75347200D02*
X146970000Y-75394819D01*
X146970000Y-75394819D02*
X146731905Y-75394819D01*
X148160476Y-74728152D02*
X148160476Y-75394819D01*
X147922381Y-74347200D02*
X147684286Y-75061485D01*
X147684286Y-75061485D02*
X148303333Y-75061485D01*
X146391905Y-46594819D02*
X146391905Y-45594819D01*
X146391905Y-45594819D02*
X146630000Y-45594819D01*
X146630000Y-45594819D02*
X146772857Y-45642438D01*
X146772857Y-45642438D02*
X146868095Y-45737676D01*
X146868095Y-45737676D02*
X146915714Y-45832914D01*
X146915714Y-45832914D02*
X146963333Y-46023390D01*
X146963333Y-46023390D02*
X146963333Y-46166247D01*
X146963333Y-46166247D02*
X146915714Y-46356723D01*
X146915714Y-46356723D02*
X146868095Y-46451961D01*
X146868095Y-46451961D02*
X146772857Y-46547200D01*
X146772857Y-46547200D02*
X146630000Y-46594819D01*
X146630000Y-46594819D02*
X146391905Y-46594819D01*
X147296667Y-45594819D02*
X147915714Y-45594819D01*
X147915714Y-45594819D02*
X147582381Y-45975771D01*
X147582381Y-45975771D02*
X147725238Y-45975771D01*
X147725238Y-45975771D02*
X147820476Y-46023390D01*
X147820476Y-46023390D02*
X147868095Y-46071009D01*
X147868095Y-46071009D02*
X147915714Y-46166247D01*
X147915714Y-46166247D02*
X147915714Y-46404342D01*
X147915714Y-46404342D02*
X147868095Y-46499580D01*
X147868095Y-46499580D02*
X147820476Y-46547200D01*
X147820476Y-46547200D02*
X147725238Y-46594819D01*
X147725238Y-46594819D02*
X147439524Y-46594819D01*
X147439524Y-46594819D02*
X147344286Y-46547200D01*
X147344286Y-46547200D02*
X147296667Y-46499580D01*
X146356905Y-56094819D02*
X146356905Y-55094819D01*
X146356905Y-55094819D02*
X146595000Y-55094819D01*
X146595000Y-55094819D02*
X146737857Y-55142438D01*
X146737857Y-55142438D02*
X146833095Y-55237676D01*
X146833095Y-55237676D02*
X146880714Y-55332914D01*
X146880714Y-55332914D02*
X146928333Y-55523390D01*
X146928333Y-55523390D02*
X146928333Y-55666247D01*
X146928333Y-55666247D02*
X146880714Y-55856723D01*
X146880714Y-55856723D02*
X146833095Y-55951961D01*
X146833095Y-55951961D02*
X146737857Y-56047200D01*
X146737857Y-56047200D02*
X146595000Y-56094819D01*
X146595000Y-56094819D02*
X146356905Y-56094819D01*
X147309286Y-55190057D02*
X147356905Y-55142438D01*
X147356905Y-55142438D02*
X147452143Y-55094819D01*
X147452143Y-55094819D02*
X147690238Y-55094819D01*
X147690238Y-55094819D02*
X147785476Y-55142438D01*
X147785476Y-55142438D02*
X147833095Y-55190057D01*
X147833095Y-55190057D02*
X147880714Y-55285295D01*
X147880714Y-55285295D02*
X147880714Y-55380533D01*
X147880714Y-55380533D02*
X147833095Y-55523390D01*
X147833095Y-55523390D02*
X147261667Y-56094819D01*
X147261667Y-56094819D02*
X147880714Y-56094819D01*
X146356905Y-65694819D02*
X146356905Y-64694819D01*
X146356905Y-64694819D02*
X146595000Y-64694819D01*
X146595000Y-64694819D02*
X146737857Y-64742438D01*
X146737857Y-64742438D02*
X146833095Y-64837676D01*
X146833095Y-64837676D02*
X146880714Y-64932914D01*
X146880714Y-64932914D02*
X146928333Y-65123390D01*
X146928333Y-65123390D02*
X146928333Y-65266247D01*
X146928333Y-65266247D02*
X146880714Y-65456723D01*
X146880714Y-65456723D02*
X146833095Y-65551961D01*
X146833095Y-65551961D02*
X146737857Y-65647200D01*
X146737857Y-65647200D02*
X146595000Y-65694819D01*
X146595000Y-65694819D02*
X146356905Y-65694819D01*
X147880714Y-65694819D02*
X147309286Y-65694819D01*
X147595000Y-65694819D02*
X147595000Y-64694819D01*
X147595000Y-64694819D02*
X147499762Y-64837676D01*
X147499762Y-64837676D02*
X147404524Y-64932914D01*
X147404524Y-64932914D02*
X147309286Y-64980533D01*
D12*
%TO.C,R4*%
X167660000Y-78600000D02*
X164350000Y-78600000D01*
X154500000Y-78600000D02*
X157810000Y-78600000D01*
X164350000Y-79970000D02*
X157810000Y-79970000D01*
X157810000Y-77230000D01*
X164350000Y-77230000D01*
X164350000Y-79970000D01*
%TO.C,R3*%
X168360000Y-49900000D02*
X165050000Y-49900000D01*
X155200000Y-49900000D02*
X158510000Y-49900000D01*
X165050000Y-51270000D02*
X158510000Y-51270000D01*
X158510000Y-48530000D01*
X165050000Y-48530000D01*
X165050000Y-51270000D01*
%TO.C,R2*%
X168400000Y-59500000D02*
X165090000Y-59500000D01*
X155240000Y-59500000D02*
X158550000Y-59500000D01*
X165090000Y-60870000D02*
X158550000Y-60870000D01*
X158550000Y-58130000D01*
X165090000Y-58130000D01*
X165090000Y-60870000D01*
%TO.C,R1*%
X167360000Y-69200000D02*
X164050000Y-69200000D01*
X154200000Y-69200000D02*
X157510000Y-69200000D01*
X164050000Y-70570000D02*
X157510000Y-70570000D01*
X157510000Y-67830000D01*
X164050000Y-67830000D01*
X164050000Y-70570000D01*
%TO.C,LS1*%
X172790000Y-77390000D02*
X173900000Y-77390000D01*
X172790000Y-78500000D02*
X172790000Y-77390000D01*
X172790000Y-79500000D02*
X172790000Y-81610000D01*
X172790000Y-79500000D02*
X175010000Y-79500000D01*
X172790000Y-81610000D02*
X175010000Y-81610000D01*
X175010000Y-79500000D02*
X175010000Y-81610000D01*
%TO.C,J1*%
X175010000Y-67410000D02*
X173900000Y-67410000D01*
X175010000Y-66300000D02*
X175010000Y-67410000D01*
X175010000Y-65300000D02*
X175010000Y-55190000D01*
X175010000Y-65300000D02*
X172790000Y-65300000D01*
X175010000Y-55190000D02*
X172790000Y-55190000D01*
X172790000Y-65300000D02*
X172790000Y-55190000D01*
%TO.C,D4*%
X144910000Y-77355000D02*
X144910000Y-80445000D01*
X144910000Y-77355170D02*
G75*
G02*
X150460000Y-78900000I2560000J-1544830D01*
G01*
X150460000Y-78900000D02*
G75*
G02*
X144910000Y-80444830I-2990000J0D01*
G01*
X149970000Y-78900000D02*
G75*
G02*
X144970000Y-78900000I-2500000J0D01*
G01*
X144970000Y-78900000D02*
G75*
G02*
X149970000Y-78900000I2500000J0D01*
G01*
%TO.C,D3*%
X144570000Y-48555000D02*
X144570000Y-51645000D01*
X144570000Y-48555170D02*
G75*
G02*
X150120000Y-50100000I2560000J-1544830D01*
G01*
X150120000Y-50100000D02*
G75*
G02*
X144570000Y-51644830I-2990000J0D01*
G01*
X149630000Y-50100000D02*
G75*
G02*
X144630000Y-50100000I-2500000J0D01*
G01*
X144630000Y-50100000D02*
G75*
G02*
X149630000Y-50100000I2500000J0D01*
G01*
%TO.C,D2*%
X144535000Y-58055000D02*
X144535000Y-61145000D01*
X144535000Y-58055170D02*
G75*
G02*
X150085000Y-59600000I2560000J-1544830D01*
G01*
X150085000Y-59600000D02*
G75*
G02*
X144535000Y-61144830I-2990000J0D01*
G01*
X149595000Y-59600000D02*
G75*
G02*
X144595000Y-59600000I-2500000J0D01*
G01*
X144595000Y-59600000D02*
G75*
G02*
X149595000Y-59600000I2500000J0D01*
G01*
%TO.C,D1*%
X144535000Y-67655000D02*
X144535000Y-70745000D01*
X144535000Y-67655170D02*
G75*
G02*
X150085000Y-69200000I2560000J-1544830D01*
G01*
X150085000Y-69200000D02*
G75*
G02*
X144535000Y-70744830I-2990000J0D01*
G01*
X149595000Y-69200000D02*
G75*
G02*
X144595000Y-69200000I-2500000J0D01*
G01*
X144595000Y-69200000D02*
G75*
G02*
X149595000Y-69200000I2500000J0D01*
G01*
%TD*%
M02*
