%TF.GenerationSoftware,KiCad,Pcbnew,9.0.2*%
%TF.CreationDate,2025-11-24T17:40:38+01:00*%
%TF.ProjectId,juego-ping-pong,6a756567-6f2d-4706-996e-672d706f6e67,rev?*%
%TF.SameCoordinates,Original*%
%TF.FileFunction,Legend,Top*%
%TF.FilePolarity,Positive*%
%FSLAX46Y46*%
G04 Gerber Fmt 4.6, Leading zero omitted, Abs format (unit mm)*
G04 Created by KiCad (PCBNEW 9.0.2) date 2025-11-24 17:40:38*
%MOMM*%
%LPD*%
G01*
G04 APERTURE LIST*
%ADD10C,0.150000*%
%ADD11C,0.120000*%
G04 APERTURE END LIST*
D10*
X168785714Y-69454819D02*
X168785714Y-68454819D01*
X168785714Y-68454819D02*
X169023809Y-68454819D01*
X169023809Y-68454819D02*
X169166666Y-68502438D01*
X169166666Y-68502438D02*
X169261904Y-68597676D01*
X169261904Y-68597676D02*
X169309523Y-68692914D01*
X169309523Y-68692914D02*
X169357142Y-68883390D01*
X169357142Y-68883390D02*
X169357142Y-69026247D01*
X169357142Y-69026247D02*
X169309523Y-69216723D01*
X169309523Y-69216723D02*
X169261904Y-69311961D01*
X169261904Y-69311961D02*
X169166666Y-69407200D01*
X169166666Y-69407200D02*
X169023809Y-69454819D01*
X169023809Y-69454819D02*
X168785714Y-69454819D01*
X170309523Y-69454819D02*
X169738095Y-69454819D01*
X170023809Y-69454819D02*
X170023809Y-68454819D01*
X170023809Y-68454819D02*
X169928571Y-68597676D01*
X169928571Y-68597676D02*
X169833333Y-68692914D01*
X169833333Y-68692914D02*
X169738095Y-68740533D01*
X170690476Y-68550057D02*
X170738095Y-68502438D01*
X170738095Y-68502438D02*
X170833333Y-68454819D01*
X170833333Y-68454819D02*
X171071428Y-68454819D01*
X171071428Y-68454819D02*
X171166666Y-68502438D01*
X171166666Y-68502438D02*
X171214285Y-68550057D01*
X171214285Y-68550057D02*
X171261904Y-68645295D01*
X171261904Y-68645295D02*
X171261904Y-68740533D01*
X171261904Y-68740533D02*
X171214285Y-68883390D01*
X171214285Y-68883390D02*
X170642857Y-69454819D01*
X170642857Y-69454819D02*
X171261904Y-69454819D01*
X136334819Y-85286666D02*
X135858628Y-85619999D01*
X136334819Y-85858094D02*
X135334819Y-85858094D01*
X135334819Y-85858094D02*
X135334819Y-85477142D01*
X135334819Y-85477142D02*
X135382438Y-85381904D01*
X135382438Y-85381904D02*
X135430057Y-85334285D01*
X135430057Y-85334285D02*
X135525295Y-85286666D01*
X135525295Y-85286666D02*
X135668152Y-85286666D01*
X135668152Y-85286666D02*
X135763390Y-85334285D01*
X135763390Y-85334285D02*
X135811009Y-85381904D01*
X135811009Y-85381904D02*
X135858628Y-85477142D01*
X135858628Y-85477142D02*
X135858628Y-85858094D01*
X135334819Y-84953332D02*
X135334819Y-84286666D01*
X135334819Y-84286666D02*
X136334819Y-84715237D01*
X104761905Y-69454819D02*
X104761905Y-68454819D01*
X104761905Y-68454819D02*
X105000000Y-68454819D01*
X105000000Y-68454819D02*
X105142857Y-68502438D01*
X105142857Y-68502438D02*
X105238095Y-68597676D01*
X105238095Y-68597676D02*
X105285714Y-68692914D01*
X105285714Y-68692914D02*
X105333333Y-68883390D01*
X105333333Y-68883390D02*
X105333333Y-69026247D01*
X105333333Y-69026247D02*
X105285714Y-69216723D01*
X105285714Y-69216723D02*
X105238095Y-69311961D01*
X105238095Y-69311961D02*
X105142857Y-69407200D01*
X105142857Y-69407200D02*
X105000000Y-69454819D01*
X105000000Y-69454819D02*
X104761905Y-69454819D01*
X105714286Y-68550057D02*
X105761905Y-68502438D01*
X105761905Y-68502438D02*
X105857143Y-68454819D01*
X105857143Y-68454819D02*
X106095238Y-68454819D01*
X106095238Y-68454819D02*
X106190476Y-68502438D01*
X106190476Y-68502438D02*
X106238095Y-68550057D01*
X106238095Y-68550057D02*
X106285714Y-68645295D01*
X106285714Y-68645295D02*
X106285714Y-68740533D01*
X106285714Y-68740533D02*
X106238095Y-68883390D01*
X106238095Y-68883390D02*
X105666667Y-69454819D01*
X105666667Y-69454819D02*
X106285714Y-69454819D01*
X84834819Y-89762857D02*
X84358628Y-90096190D01*
X84834819Y-90334285D02*
X83834819Y-90334285D01*
X83834819Y-90334285D02*
X83834819Y-89953333D01*
X83834819Y-89953333D02*
X83882438Y-89858095D01*
X83882438Y-89858095D02*
X83930057Y-89810476D01*
X83930057Y-89810476D02*
X84025295Y-89762857D01*
X84025295Y-89762857D02*
X84168152Y-89762857D01*
X84168152Y-89762857D02*
X84263390Y-89810476D01*
X84263390Y-89810476D02*
X84311009Y-89858095D01*
X84311009Y-89858095D02*
X84358628Y-89953333D01*
X84358628Y-89953333D02*
X84358628Y-90334285D01*
X84834819Y-88810476D02*
X84834819Y-89381904D01*
X84834819Y-89096190D02*
X83834819Y-89096190D01*
X83834819Y-89096190D02*
X83977676Y-89191428D01*
X83977676Y-89191428D02*
X84072914Y-89286666D01*
X84072914Y-89286666D02*
X84120533Y-89381904D01*
X83834819Y-87953333D02*
X83834819Y-88143809D01*
X83834819Y-88143809D02*
X83882438Y-88239047D01*
X83882438Y-88239047D02*
X83930057Y-88286666D01*
X83930057Y-88286666D02*
X84072914Y-88381904D01*
X84072914Y-88381904D02*
X84263390Y-88429523D01*
X84263390Y-88429523D02*
X84644342Y-88429523D01*
X84644342Y-88429523D02*
X84739580Y-88381904D01*
X84739580Y-88381904D02*
X84787200Y-88334285D01*
X84787200Y-88334285D02*
X84834819Y-88239047D01*
X84834819Y-88239047D02*
X84834819Y-88048571D01*
X84834819Y-88048571D02*
X84787200Y-87953333D01*
X84787200Y-87953333D02*
X84739580Y-87905714D01*
X84739580Y-87905714D02*
X84644342Y-87858095D01*
X84644342Y-87858095D02*
X84406247Y-87858095D01*
X84406247Y-87858095D02*
X84311009Y-87905714D01*
X84311009Y-87905714D02*
X84263390Y-87953333D01*
X84263390Y-87953333D02*
X84215771Y-88048571D01*
X84215771Y-88048571D02*
X84215771Y-88239047D01*
X84215771Y-88239047D02*
X84263390Y-88334285D01*
X84263390Y-88334285D02*
X84311009Y-88381904D01*
X84311009Y-88381904D02*
X84406247Y-88429523D01*
X129834819Y-85286666D02*
X129358628Y-85619999D01*
X129834819Y-85858094D02*
X128834819Y-85858094D01*
X128834819Y-85858094D02*
X128834819Y-85477142D01*
X128834819Y-85477142D02*
X128882438Y-85381904D01*
X128882438Y-85381904D02*
X128930057Y-85334285D01*
X128930057Y-85334285D02*
X129025295Y-85286666D01*
X129025295Y-85286666D02*
X129168152Y-85286666D01*
X129168152Y-85286666D02*
X129263390Y-85334285D01*
X129263390Y-85334285D02*
X129311009Y-85381904D01*
X129311009Y-85381904D02*
X129358628Y-85477142D01*
X129358628Y-85477142D02*
X129358628Y-85858094D01*
X128834819Y-84429523D02*
X128834819Y-84619999D01*
X128834819Y-84619999D02*
X128882438Y-84715237D01*
X128882438Y-84715237D02*
X128930057Y-84762856D01*
X128930057Y-84762856D02*
X129072914Y-84858094D01*
X129072914Y-84858094D02*
X129263390Y-84905713D01*
X129263390Y-84905713D02*
X129644342Y-84905713D01*
X129644342Y-84905713D02*
X129739580Y-84858094D01*
X129739580Y-84858094D02*
X129787200Y-84810475D01*
X129787200Y-84810475D02*
X129834819Y-84715237D01*
X129834819Y-84715237D02*
X129834819Y-84524761D01*
X129834819Y-84524761D02*
X129787200Y-84429523D01*
X129787200Y-84429523D02*
X129739580Y-84381904D01*
X129739580Y-84381904D02*
X129644342Y-84334285D01*
X129644342Y-84334285D02*
X129406247Y-84334285D01*
X129406247Y-84334285D02*
X129311009Y-84381904D01*
X129311009Y-84381904D02*
X129263390Y-84429523D01*
X129263390Y-84429523D02*
X129215771Y-84524761D01*
X129215771Y-84524761D02*
X129215771Y-84715237D01*
X129215771Y-84715237D02*
X129263390Y-84810475D01*
X129263390Y-84810475D02*
X129311009Y-84858094D01*
X129311009Y-84858094D02*
X129406247Y-84905713D01*
X181334819Y-85762857D02*
X180858628Y-86096190D01*
X181334819Y-86334285D02*
X180334819Y-86334285D01*
X180334819Y-86334285D02*
X180334819Y-85953333D01*
X180334819Y-85953333D02*
X180382438Y-85858095D01*
X180382438Y-85858095D02*
X180430057Y-85810476D01*
X180430057Y-85810476D02*
X180525295Y-85762857D01*
X180525295Y-85762857D02*
X180668152Y-85762857D01*
X180668152Y-85762857D02*
X180763390Y-85810476D01*
X180763390Y-85810476D02*
X180811009Y-85858095D01*
X180811009Y-85858095D02*
X180858628Y-85953333D01*
X180858628Y-85953333D02*
X180858628Y-86334285D01*
X181334819Y-84810476D02*
X181334819Y-85381904D01*
X181334819Y-85096190D02*
X180334819Y-85096190D01*
X180334819Y-85096190D02*
X180477676Y-85191428D01*
X180477676Y-85191428D02*
X180572914Y-85286666D01*
X180572914Y-85286666D02*
X180620533Y-85381904D01*
X180668152Y-83953333D02*
X181334819Y-83953333D01*
X180287200Y-84191428D02*
X181001485Y-84429523D01*
X181001485Y-84429523D02*
X181001485Y-83810476D01*
X116834819Y-85286666D02*
X116358628Y-85619999D01*
X116834819Y-85858094D02*
X115834819Y-85858094D01*
X115834819Y-85858094D02*
X115834819Y-85477142D01*
X115834819Y-85477142D02*
X115882438Y-85381904D01*
X115882438Y-85381904D02*
X115930057Y-85334285D01*
X115930057Y-85334285D02*
X116025295Y-85286666D01*
X116025295Y-85286666D02*
X116168152Y-85286666D01*
X116168152Y-85286666D02*
X116263390Y-85334285D01*
X116263390Y-85334285D02*
X116311009Y-85381904D01*
X116311009Y-85381904D02*
X116358628Y-85477142D01*
X116358628Y-85477142D02*
X116358628Y-85858094D01*
X116168152Y-84429523D02*
X116834819Y-84429523D01*
X115787200Y-84667618D02*
X116501485Y-84905713D01*
X116501485Y-84905713D02*
X116501485Y-84286666D01*
X174834819Y-85762857D02*
X174358628Y-86096190D01*
X174834819Y-86334285D02*
X173834819Y-86334285D01*
X173834819Y-86334285D02*
X173834819Y-85953333D01*
X173834819Y-85953333D02*
X173882438Y-85858095D01*
X173882438Y-85858095D02*
X173930057Y-85810476D01*
X173930057Y-85810476D02*
X174025295Y-85762857D01*
X174025295Y-85762857D02*
X174168152Y-85762857D01*
X174168152Y-85762857D02*
X174263390Y-85810476D01*
X174263390Y-85810476D02*
X174311009Y-85858095D01*
X174311009Y-85858095D02*
X174358628Y-85953333D01*
X174358628Y-85953333D02*
X174358628Y-86334285D01*
X174834819Y-84810476D02*
X174834819Y-85381904D01*
X174834819Y-85096190D02*
X173834819Y-85096190D01*
X173834819Y-85096190D02*
X173977676Y-85191428D01*
X173977676Y-85191428D02*
X174072914Y-85286666D01*
X174072914Y-85286666D02*
X174120533Y-85381904D01*
X173834819Y-84477142D02*
X173834819Y-83858095D01*
X173834819Y-83858095D02*
X174215771Y-84191428D01*
X174215771Y-84191428D02*
X174215771Y-84048571D01*
X174215771Y-84048571D02*
X174263390Y-83953333D01*
X174263390Y-83953333D02*
X174311009Y-83905714D01*
X174311009Y-83905714D02*
X174406247Y-83858095D01*
X174406247Y-83858095D02*
X174644342Y-83858095D01*
X174644342Y-83858095D02*
X174739580Y-83905714D01*
X174739580Y-83905714D02*
X174787200Y-83953333D01*
X174787200Y-83953333D02*
X174834819Y-84048571D01*
X174834819Y-84048571D02*
X174834819Y-84334285D01*
X174834819Y-84334285D02*
X174787200Y-84429523D01*
X174787200Y-84429523D02*
X174739580Y-84477142D01*
X149334819Y-85286666D02*
X148858628Y-85619999D01*
X149334819Y-85858094D02*
X148334819Y-85858094D01*
X148334819Y-85858094D02*
X148334819Y-85477142D01*
X148334819Y-85477142D02*
X148382438Y-85381904D01*
X148382438Y-85381904D02*
X148430057Y-85334285D01*
X148430057Y-85334285D02*
X148525295Y-85286666D01*
X148525295Y-85286666D02*
X148668152Y-85286666D01*
X148668152Y-85286666D02*
X148763390Y-85334285D01*
X148763390Y-85334285D02*
X148811009Y-85381904D01*
X148811009Y-85381904D02*
X148858628Y-85477142D01*
X148858628Y-85477142D02*
X148858628Y-85858094D01*
X149334819Y-84810475D02*
X149334819Y-84619999D01*
X149334819Y-84619999D02*
X149287200Y-84524761D01*
X149287200Y-84524761D02*
X149239580Y-84477142D01*
X149239580Y-84477142D02*
X149096723Y-84381904D01*
X149096723Y-84381904D02*
X148906247Y-84334285D01*
X148906247Y-84334285D02*
X148525295Y-84334285D01*
X148525295Y-84334285D02*
X148430057Y-84381904D01*
X148430057Y-84381904D02*
X148382438Y-84429523D01*
X148382438Y-84429523D02*
X148334819Y-84524761D01*
X148334819Y-84524761D02*
X148334819Y-84715237D01*
X148334819Y-84715237D02*
X148382438Y-84810475D01*
X148382438Y-84810475D02*
X148430057Y-84858094D01*
X148430057Y-84858094D02*
X148525295Y-84905713D01*
X148525295Y-84905713D02*
X148763390Y-84905713D01*
X148763390Y-84905713D02*
X148858628Y-84858094D01*
X148858628Y-84858094D02*
X148906247Y-84810475D01*
X148906247Y-84810475D02*
X148953866Y-84715237D01*
X148953866Y-84715237D02*
X148953866Y-84524761D01*
X148953866Y-84524761D02*
X148906247Y-84429523D01*
X148906247Y-84429523D02*
X148858628Y-84381904D01*
X148858628Y-84381904D02*
X148763390Y-84334285D01*
X155785714Y-69454819D02*
X155785714Y-68454819D01*
X155785714Y-68454819D02*
X156023809Y-68454819D01*
X156023809Y-68454819D02*
X156166666Y-68502438D01*
X156166666Y-68502438D02*
X156261904Y-68597676D01*
X156261904Y-68597676D02*
X156309523Y-68692914D01*
X156309523Y-68692914D02*
X156357142Y-68883390D01*
X156357142Y-68883390D02*
X156357142Y-69026247D01*
X156357142Y-69026247D02*
X156309523Y-69216723D01*
X156309523Y-69216723D02*
X156261904Y-69311961D01*
X156261904Y-69311961D02*
X156166666Y-69407200D01*
X156166666Y-69407200D02*
X156023809Y-69454819D01*
X156023809Y-69454819D02*
X155785714Y-69454819D01*
X157309523Y-69454819D02*
X156738095Y-69454819D01*
X157023809Y-69454819D02*
X157023809Y-68454819D01*
X157023809Y-68454819D02*
X156928571Y-68597676D01*
X156928571Y-68597676D02*
X156833333Y-68692914D01*
X156833333Y-68692914D02*
X156738095Y-68740533D01*
X157928571Y-68454819D02*
X158023809Y-68454819D01*
X158023809Y-68454819D02*
X158119047Y-68502438D01*
X158119047Y-68502438D02*
X158166666Y-68550057D01*
X158166666Y-68550057D02*
X158214285Y-68645295D01*
X158214285Y-68645295D02*
X158261904Y-68835771D01*
X158261904Y-68835771D02*
X158261904Y-69073866D01*
X158261904Y-69073866D02*
X158214285Y-69264342D01*
X158214285Y-69264342D02*
X158166666Y-69359580D01*
X158166666Y-69359580D02*
X158119047Y-69407200D01*
X158119047Y-69407200D02*
X158023809Y-69454819D01*
X158023809Y-69454819D02*
X157928571Y-69454819D01*
X157928571Y-69454819D02*
X157833333Y-69407200D01*
X157833333Y-69407200D02*
X157785714Y-69359580D01*
X157785714Y-69359580D02*
X157738095Y-69264342D01*
X157738095Y-69264342D02*
X157690476Y-69073866D01*
X157690476Y-69073866D02*
X157690476Y-68835771D01*
X157690476Y-68835771D02*
X157738095Y-68645295D01*
X157738095Y-68645295D02*
X157785714Y-68550057D01*
X157785714Y-68550057D02*
X157833333Y-68502438D01*
X157833333Y-68502438D02*
X157928571Y-68454819D01*
X188285714Y-69454819D02*
X188285714Y-68454819D01*
X188285714Y-68454819D02*
X188523809Y-68454819D01*
X188523809Y-68454819D02*
X188666666Y-68502438D01*
X188666666Y-68502438D02*
X188761904Y-68597676D01*
X188761904Y-68597676D02*
X188809523Y-68692914D01*
X188809523Y-68692914D02*
X188857142Y-68883390D01*
X188857142Y-68883390D02*
X188857142Y-69026247D01*
X188857142Y-69026247D02*
X188809523Y-69216723D01*
X188809523Y-69216723D02*
X188761904Y-69311961D01*
X188761904Y-69311961D02*
X188666666Y-69407200D01*
X188666666Y-69407200D02*
X188523809Y-69454819D01*
X188523809Y-69454819D02*
X188285714Y-69454819D01*
X189809523Y-69454819D02*
X189238095Y-69454819D01*
X189523809Y-69454819D02*
X189523809Y-68454819D01*
X189523809Y-68454819D02*
X189428571Y-68597676D01*
X189428571Y-68597676D02*
X189333333Y-68692914D01*
X189333333Y-68692914D02*
X189238095Y-68740533D01*
X190714285Y-68454819D02*
X190238095Y-68454819D01*
X190238095Y-68454819D02*
X190190476Y-68931009D01*
X190190476Y-68931009D02*
X190238095Y-68883390D01*
X190238095Y-68883390D02*
X190333333Y-68835771D01*
X190333333Y-68835771D02*
X190571428Y-68835771D01*
X190571428Y-68835771D02*
X190666666Y-68883390D01*
X190666666Y-68883390D02*
X190714285Y-68931009D01*
X190714285Y-68931009D02*
X190761904Y-69026247D01*
X190761904Y-69026247D02*
X190761904Y-69264342D01*
X190761904Y-69264342D02*
X190714285Y-69359580D01*
X190714285Y-69359580D02*
X190666666Y-69407200D01*
X190666666Y-69407200D02*
X190571428Y-69454819D01*
X190571428Y-69454819D02*
X190333333Y-69454819D01*
X190333333Y-69454819D02*
X190238095Y-69407200D01*
X190238095Y-69407200D02*
X190190476Y-69359580D01*
X85511905Y-70704819D02*
X85511905Y-69704819D01*
X85511905Y-69704819D02*
X85892857Y-69704819D01*
X85892857Y-69704819D02*
X85988095Y-69752438D01*
X85988095Y-69752438D02*
X86035714Y-69800057D01*
X86035714Y-69800057D02*
X86083333Y-69895295D01*
X86083333Y-69895295D02*
X86083333Y-70038152D01*
X86083333Y-70038152D02*
X86035714Y-70133390D01*
X86035714Y-70133390D02*
X85988095Y-70181009D01*
X85988095Y-70181009D02*
X85892857Y-70228628D01*
X85892857Y-70228628D02*
X85511905Y-70228628D01*
X87035714Y-70704819D02*
X86464286Y-70704819D01*
X86750000Y-70704819D02*
X86750000Y-69704819D01*
X86750000Y-69704819D02*
X86654762Y-69847676D01*
X86654762Y-69847676D02*
X86559524Y-69942914D01*
X86559524Y-69942914D02*
X86464286Y-69990533D01*
X142834819Y-85286666D02*
X142358628Y-85619999D01*
X142834819Y-85858094D02*
X141834819Y-85858094D01*
X141834819Y-85858094D02*
X141834819Y-85477142D01*
X141834819Y-85477142D02*
X141882438Y-85381904D01*
X141882438Y-85381904D02*
X141930057Y-85334285D01*
X141930057Y-85334285D02*
X142025295Y-85286666D01*
X142025295Y-85286666D02*
X142168152Y-85286666D01*
X142168152Y-85286666D02*
X142263390Y-85334285D01*
X142263390Y-85334285D02*
X142311009Y-85381904D01*
X142311009Y-85381904D02*
X142358628Y-85477142D01*
X142358628Y-85477142D02*
X142358628Y-85858094D01*
X142263390Y-84715237D02*
X142215771Y-84810475D01*
X142215771Y-84810475D02*
X142168152Y-84858094D01*
X142168152Y-84858094D02*
X142072914Y-84905713D01*
X142072914Y-84905713D02*
X142025295Y-84905713D01*
X142025295Y-84905713D02*
X141930057Y-84858094D01*
X141930057Y-84858094D02*
X141882438Y-84810475D01*
X141882438Y-84810475D02*
X141834819Y-84715237D01*
X141834819Y-84715237D02*
X141834819Y-84524761D01*
X141834819Y-84524761D02*
X141882438Y-84429523D01*
X141882438Y-84429523D02*
X141930057Y-84381904D01*
X141930057Y-84381904D02*
X142025295Y-84334285D01*
X142025295Y-84334285D02*
X142072914Y-84334285D01*
X142072914Y-84334285D02*
X142168152Y-84381904D01*
X142168152Y-84381904D02*
X142215771Y-84429523D01*
X142215771Y-84429523D02*
X142263390Y-84524761D01*
X142263390Y-84524761D02*
X142263390Y-84715237D01*
X142263390Y-84715237D02*
X142311009Y-84810475D01*
X142311009Y-84810475D02*
X142358628Y-84858094D01*
X142358628Y-84858094D02*
X142453866Y-84905713D01*
X142453866Y-84905713D02*
X142644342Y-84905713D01*
X142644342Y-84905713D02*
X142739580Y-84858094D01*
X142739580Y-84858094D02*
X142787200Y-84810475D01*
X142787200Y-84810475D02*
X142834819Y-84715237D01*
X142834819Y-84715237D02*
X142834819Y-84524761D01*
X142834819Y-84524761D02*
X142787200Y-84429523D01*
X142787200Y-84429523D02*
X142739580Y-84381904D01*
X142739580Y-84381904D02*
X142644342Y-84334285D01*
X142644342Y-84334285D02*
X142453866Y-84334285D01*
X142453866Y-84334285D02*
X142358628Y-84381904D01*
X142358628Y-84381904D02*
X142311009Y-84429523D01*
X142311009Y-84429523D02*
X142263390Y-84524761D01*
X143261905Y-69454819D02*
X143261905Y-68454819D01*
X143261905Y-68454819D02*
X143500000Y-68454819D01*
X143500000Y-68454819D02*
X143642857Y-68502438D01*
X143642857Y-68502438D02*
X143738095Y-68597676D01*
X143738095Y-68597676D02*
X143785714Y-68692914D01*
X143785714Y-68692914D02*
X143833333Y-68883390D01*
X143833333Y-68883390D02*
X143833333Y-69026247D01*
X143833333Y-69026247D02*
X143785714Y-69216723D01*
X143785714Y-69216723D02*
X143738095Y-69311961D01*
X143738095Y-69311961D02*
X143642857Y-69407200D01*
X143642857Y-69407200D02*
X143500000Y-69454819D01*
X143500000Y-69454819D02*
X143261905Y-69454819D01*
X144404762Y-68883390D02*
X144309524Y-68835771D01*
X144309524Y-68835771D02*
X144261905Y-68788152D01*
X144261905Y-68788152D02*
X144214286Y-68692914D01*
X144214286Y-68692914D02*
X144214286Y-68645295D01*
X144214286Y-68645295D02*
X144261905Y-68550057D01*
X144261905Y-68550057D02*
X144309524Y-68502438D01*
X144309524Y-68502438D02*
X144404762Y-68454819D01*
X144404762Y-68454819D02*
X144595238Y-68454819D01*
X144595238Y-68454819D02*
X144690476Y-68502438D01*
X144690476Y-68502438D02*
X144738095Y-68550057D01*
X144738095Y-68550057D02*
X144785714Y-68645295D01*
X144785714Y-68645295D02*
X144785714Y-68692914D01*
X144785714Y-68692914D02*
X144738095Y-68788152D01*
X144738095Y-68788152D02*
X144690476Y-68835771D01*
X144690476Y-68835771D02*
X144595238Y-68883390D01*
X144595238Y-68883390D02*
X144404762Y-68883390D01*
X144404762Y-68883390D02*
X144309524Y-68931009D01*
X144309524Y-68931009D02*
X144261905Y-68978628D01*
X144261905Y-68978628D02*
X144214286Y-69073866D01*
X144214286Y-69073866D02*
X144214286Y-69264342D01*
X144214286Y-69264342D02*
X144261905Y-69359580D01*
X144261905Y-69359580D02*
X144309524Y-69407200D01*
X144309524Y-69407200D02*
X144404762Y-69454819D01*
X144404762Y-69454819D02*
X144595238Y-69454819D01*
X144595238Y-69454819D02*
X144690476Y-69407200D01*
X144690476Y-69407200D02*
X144738095Y-69359580D01*
X144738095Y-69359580D02*
X144785714Y-69264342D01*
X144785714Y-69264342D02*
X144785714Y-69073866D01*
X144785714Y-69073866D02*
X144738095Y-68978628D01*
X144738095Y-68978628D02*
X144690476Y-68931009D01*
X144690476Y-68931009D02*
X144595238Y-68883390D01*
X150261905Y-69454819D02*
X150261905Y-68454819D01*
X150261905Y-68454819D02*
X150500000Y-68454819D01*
X150500000Y-68454819D02*
X150642857Y-68502438D01*
X150642857Y-68502438D02*
X150738095Y-68597676D01*
X150738095Y-68597676D02*
X150785714Y-68692914D01*
X150785714Y-68692914D02*
X150833333Y-68883390D01*
X150833333Y-68883390D02*
X150833333Y-69026247D01*
X150833333Y-69026247D02*
X150785714Y-69216723D01*
X150785714Y-69216723D02*
X150738095Y-69311961D01*
X150738095Y-69311961D02*
X150642857Y-69407200D01*
X150642857Y-69407200D02*
X150500000Y-69454819D01*
X150500000Y-69454819D02*
X150261905Y-69454819D01*
X151309524Y-69454819D02*
X151500000Y-69454819D01*
X151500000Y-69454819D02*
X151595238Y-69407200D01*
X151595238Y-69407200D02*
X151642857Y-69359580D01*
X151642857Y-69359580D02*
X151738095Y-69216723D01*
X151738095Y-69216723D02*
X151785714Y-69026247D01*
X151785714Y-69026247D02*
X151785714Y-68645295D01*
X151785714Y-68645295D02*
X151738095Y-68550057D01*
X151738095Y-68550057D02*
X151690476Y-68502438D01*
X151690476Y-68502438D02*
X151595238Y-68454819D01*
X151595238Y-68454819D02*
X151404762Y-68454819D01*
X151404762Y-68454819D02*
X151309524Y-68502438D01*
X151309524Y-68502438D02*
X151261905Y-68550057D01*
X151261905Y-68550057D02*
X151214286Y-68645295D01*
X151214286Y-68645295D02*
X151214286Y-68883390D01*
X151214286Y-68883390D02*
X151261905Y-68978628D01*
X151261905Y-68978628D02*
X151309524Y-69026247D01*
X151309524Y-69026247D02*
X151404762Y-69073866D01*
X151404762Y-69073866D02*
X151595238Y-69073866D01*
X151595238Y-69073866D02*
X151690476Y-69026247D01*
X151690476Y-69026247D02*
X151738095Y-68978628D01*
X151738095Y-68978628D02*
X151785714Y-68883390D01*
X103834819Y-85286666D02*
X103358628Y-85619999D01*
X103834819Y-85858094D02*
X102834819Y-85858094D01*
X102834819Y-85858094D02*
X102834819Y-85477142D01*
X102834819Y-85477142D02*
X102882438Y-85381904D01*
X102882438Y-85381904D02*
X102930057Y-85334285D01*
X102930057Y-85334285D02*
X103025295Y-85286666D01*
X103025295Y-85286666D02*
X103168152Y-85286666D01*
X103168152Y-85286666D02*
X103263390Y-85334285D01*
X103263390Y-85334285D02*
X103311009Y-85381904D01*
X103311009Y-85381904D02*
X103358628Y-85477142D01*
X103358628Y-85477142D02*
X103358628Y-85858094D01*
X102930057Y-84905713D02*
X102882438Y-84858094D01*
X102882438Y-84858094D02*
X102834819Y-84762856D01*
X102834819Y-84762856D02*
X102834819Y-84524761D01*
X102834819Y-84524761D02*
X102882438Y-84429523D01*
X102882438Y-84429523D02*
X102930057Y-84381904D01*
X102930057Y-84381904D02*
X103025295Y-84334285D01*
X103025295Y-84334285D02*
X103120533Y-84334285D01*
X103120533Y-84334285D02*
X103263390Y-84381904D01*
X103263390Y-84381904D02*
X103834819Y-84953332D01*
X103834819Y-84953332D02*
X103834819Y-84334285D01*
X124261905Y-69454819D02*
X124261905Y-68454819D01*
X124261905Y-68454819D02*
X124500000Y-68454819D01*
X124500000Y-68454819D02*
X124642857Y-68502438D01*
X124642857Y-68502438D02*
X124738095Y-68597676D01*
X124738095Y-68597676D02*
X124785714Y-68692914D01*
X124785714Y-68692914D02*
X124833333Y-68883390D01*
X124833333Y-68883390D02*
X124833333Y-69026247D01*
X124833333Y-69026247D02*
X124785714Y-69216723D01*
X124785714Y-69216723D02*
X124738095Y-69311961D01*
X124738095Y-69311961D02*
X124642857Y-69407200D01*
X124642857Y-69407200D02*
X124500000Y-69454819D01*
X124500000Y-69454819D02*
X124261905Y-69454819D01*
X125738095Y-68454819D02*
X125261905Y-68454819D01*
X125261905Y-68454819D02*
X125214286Y-68931009D01*
X125214286Y-68931009D02*
X125261905Y-68883390D01*
X125261905Y-68883390D02*
X125357143Y-68835771D01*
X125357143Y-68835771D02*
X125595238Y-68835771D01*
X125595238Y-68835771D02*
X125690476Y-68883390D01*
X125690476Y-68883390D02*
X125738095Y-68931009D01*
X125738095Y-68931009D02*
X125785714Y-69026247D01*
X125785714Y-69026247D02*
X125785714Y-69264342D01*
X125785714Y-69264342D02*
X125738095Y-69359580D01*
X125738095Y-69359580D02*
X125690476Y-69407200D01*
X125690476Y-69407200D02*
X125595238Y-69454819D01*
X125595238Y-69454819D02*
X125357143Y-69454819D01*
X125357143Y-69454819D02*
X125261905Y-69407200D01*
X125261905Y-69407200D02*
X125214286Y-69359580D01*
X163916666Y-117904819D02*
X163916666Y-118619104D01*
X163916666Y-118619104D02*
X163869047Y-118761961D01*
X163869047Y-118761961D02*
X163773809Y-118857200D01*
X163773809Y-118857200D02*
X163630952Y-118904819D01*
X163630952Y-118904819D02*
X163535714Y-118904819D01*
X164916666Y-118904819D02*
X164345238Y-118904819D01*
X164630952Y-118904819D02*
X164630952Y-117904819D01*
X164630952Y-117904819D02*
X164535714Y-118047676D01*
X164535714Y-118047676D02*
X164440476Y-118142914D01*
X164440476Y-118142914D02*
X164345238Y-118190533D01*
X97334819Y-85286666D02*
X96858628Y-85619999D01*
X97334819Y-85858094D02*
X96334819Y-85858094D01*
X96334819Y-85858094D02*
X96334819Y-85477142D01*
X96334819Y-85477142D02*
X96382438Y-85381904D01*
X96382438Y-85381904D02*
X96430057Y-85334285D01*
X96430057Y-85334285D02*
X96525295Y-85286666D01*
X96525295Y-85286666D02*
X96668152Y-85286666D01*
X96668152Y-85286666D02*
X96763390Y-85334285D01*
X96763390Y-85334285D02*
X96811009Y-85381904D01*
X96811009Y-85381904D02*
X96858628Y-85477142D01*
X96858628Y-85477142D02*
X96858628Y-85858094D01*
X97334819Y-84334285D02*
X97334819Y-84905713D01*
X97334819Y-84619999D02*
X96334819Y-84619999D01*
X96334819Y-84619999D02*
X96477676Y-84715237D01*
X96477676Y-84715237D02*
X96572914Y-84810475D01*
X96572914Y-84810475D02*
X96620533Y-84905713D01*
X187834819Y-85762857D02*
X187358628Y-86096190D01*
X187834819Y-86334285D02*
X186834819Y-86334285D01*
X186834819Y-86334285D02*
X186834819Y-85953333D01*
X186834819Y-85953333D02*
X186882438Y-85858095D01*
X186882438Y-85858095D02*
X186930057Y-85810476D01*
X186930057Y-85810476D02*
X187025295Y-85762857D01*
X187025295Y-85762857D02*
X187168152Y-85762857D01*
X187168152Y-85762857D02*
X187263390Y-85810476D01*
X187263390Y-85810476D02*
X187311009Y-85858095D01*
X187311009Y-85858095D02*
X187358628Y-85953333D01*
X187358628Y-85953333D02*
X187358628Y-86334285D01*
X187834819Y-84810476D02*
X187834819Y-85381904D01*
X187834819Y-85096190D02*
X186834819Y-85096190D01*
X186834819Y-85096190D02*
X186977676Y-85191428D01*
X186977676Y-85191428D02*
X187072914Y-85286666D01*
X187072914Y-85286666D02*
X187120533Y-85381904D01*
X186834819Y-83905714D02*
X186834819Y-84381904D01*
X186834819Y-84381904D02*
X187311009Y-84429523D01*
X187311009Y-84429523D02*
X187263390Y-84381904D01*
X187263390Y-84381904D02*
X187215771Y-84286666D01*
X187215771Y-84286666D02*
X187215771Y-84048571D01*
X187215771Y-84048571D02*
X187263390Y-83953333D01*
X187263390Y-83953333D02*
X187311009Y-83905714D01*
X187311009Y-83905714D02*
X187406247Y-83858095D01*
X187406247Y-83858095D02*
X187644342Y-83858095D01*
X187644342Y-83858095D02*
X187739580Y-83905714D01*
X187739580Y-83905714D02*
X187787200Y-83953333D01*
X187787200Y-83953333D02*
X187834819Y-84048571D01*
X187834819Y-84048571D02*
X187834819Y-84286666D01*
X187834819Y-84286666D02*
X187787200Y-84381904D01*
X187787200Y-84381904D02*
X187739580Y-84429523D01*
X162334819Y-85762857D02*
X161858628Y-86096190D01*
X162334819Y-86334285D02*
X161334819Y-86334285D01*
X161334819Y-86334285D02*
X161334819Y-85953333D01*
X161334819Y-85953333D02*
X161382438Y-85858095D01*
X161382438Y-85858095D02*
X161430057Y-85810476D01*
X161430057Y-85810476D02*
X161525295Y-85762857D01*
X161525295Y-85762857D02*
X161668152Y-85762857D01*
X161668152Y-85762857D02*
X161763390Y-85810476D01*
X161763390Y-85810476D02*
X161811009Y-85858095D01*
X161811009Y-85858095D02*
X161858628Y-85953333D01*
X161858628Y-85953333D02*
X161858628Y-86334285D01*
X162334819Y-84810476D02*
X162334819Y-85381904D01*
X162334819Y-85096190D02*
X161334819Y-85096190D01*
X161334819Y-85096190D02*
X161477676Y-85191428D01*
X161477676Y-85191428D02*
X161572914Y-85286666D01*
X161572914Y-85286666D02*
X161620533Y-85381904D01*
X162334819Y-83858095D02*
X162334819Y-84429523D01*
X162334819Y-84143809D02*
X161334819Y-84143809D01*
X161334819Y-84143809D02*
X161477676Y-84239047D01*
X161477676Y-84239047D02*
X161572914Y-84334285D01*
X161572914Y-84334285D02*
X161620533Y-84429523D01*
X199761905Y-70454819D02*
X199761905Y-69454819D01*
X199761905Y-69454819D02*
X200142857Y-69454819D01*
X200142857Y-69454819D02*
X200238095Y-69502438D01*
X200238095Y-69502438D02*
X200285714Y-69550057D01*
X200285714Y-69550057D02*
X200333333Y-69645295D01*
X200333333Y-69645295D02*
X200333333Y-69788152D01*
X200333333Y-69788152D02*
X200285714Y-69883390D01*
X200285714Y-69883390D02*
X200238095Y-69931009D01*
X200238095Y-69931009D02*
X200142857Y-69978628D01*
X200142857Y-69978628D02*
X199761905Y-69978628D01*
X200714286Y-69550057D02*
X200761905Y-69502438D01*
X200761905Y-69502438D02*
X200857143Y-69454819D01*
X200857143Y-69454819D02*
X201095238Y-69454819D01*
X201095238Y-69454819D02*
X201190476Y-69502438D01*
X201190476Y-69502438D02*
X201238095Y-69550057D01*
X201238095Y-69550057D02*
X201285714Y-69645295D01*
X201285714Y-69645295D02*
X201285714Y-69740533D01*
X201285714Y-69740533D02*
X201238095Y-69883390D01*
X201238095Y-69883390D02*
X200666667Y-70454819D01*
X200666667Y-70454819D02*
X201285714Y-70454819D01*
X197834819Y-91762857D02*
X197358628Y-92096190D01*
X197834819Y-92334285D02*
X196834819Y-92334285D01*
X196834819Y-92334285D02*
X196834819Y-91953333D01*
X196834819Y-91953333D02*
X196882438Y-91858095D01*
X196882438Y-91858095D02*
X196930057Y-91810476D01*
X196930057Y-91810476D02*
X197025295Y-91762857D01*
X197025295Y-91762857D02*
X197168152Y-91762857D01*
X197168152Y-91762857D02*
X197263390Y-91810476D01*
X197263390Y-91810476D02*
X197311009Y-91858095D01*
X197311009Y-91858095D02*
X197358628Y-91953333D01*
X197358628Y-91953333D02*
X197358628Y-92334285D01*
X197834819Y-90810476D02*
X197834819Y-91381904D01*
X197834819Y-91096190D02*
X196834819Y-91096190D01*
X196834819Y-91096190D02*
X196977676Y-91191428D01*
X196977676Y-91191428D02*
X197072914Y-91286666D01*
X197072914Y-91286666D02*
X197120533Y-91381904D01*
X196834819Y-90477142D02*
X196834819Y-89810476D01*
X196834819Y-89810476D02*
X197834819Y-90239047D01*
X112916666Y-114404819D02*
X112916666Y-115119104D01*
X112916666Y-115119104D02*
X112869047Y-115261961D01*
X112869047Y-115261961D02*
X112773809Y-115357200D01*
X112773809Y-115357200D02*
X112630952Y-115404819D01*
X112630952Y-115404819D02*
X112535714Y-115404819D01*
X113345238Y-114500057D02*
X113392857Y-114452438D01*
X113392857Y-114452438D02*
X113488095Y-114404819D01*
X113488095Y-114404819D02*
X113726190Y-114404819D01*
X113726190Y-114404819D02*
X113821428Y-114452438D01*
X113821428Y-114452438D02*
X113869047Y-114500057D01*
X113869047Y-114500057D02*
X113916666Y-114595295D01*
X113916666Y-114595295D02*
X113916666Y-114690533D01*
X113916666Y-114690533D02*
X113869047Y-114833390D01*
X113869047Y-114833390D02*
X113297619Y-115404819D01*
X113297619Y-115404819D02*
X113916666Y-115404819D01*
X162785714Y-69454819D02*
X162785714Y-68454819D01*
X162785714Y-68454819D02*
X163023809Y-68454819D01*
X163023809Y-68454819D02*
X163166666Y-68502438D01*
X163166666Y-68502438D02*
X163261904Y-68597676D01*
X163261904Y-68597676D02*
X163309523Y-68692914D01*
X163309523Y-68692914D02*
X163357142Y-68883390D01*
X163357142Y-68883390D02*
X163357142Y-69026247D01*
X163357142Y-69026247D02*
X163309523Y-69216723D01*
X163309523Y-69216723D02*
X163261904Y-69311961D01*
X163261904Y-69311961D02*
X163166666Y-69407200D01*
X163166666Y-69407200D02*
X163023809Y-69454819D01*
X163023809Y-69454819D02*
X162785714Y-69454819D01*
X164309523Y-69454819D02*
X163738095Y-69454819D01*
X164023809Y-69454819D02*
X164023809Y-68454819D01*
X164023809Y-68454819D02*
X163928571Y-68597676D01*
X163928571Y-68597676D02*
X163833333Y-68692914D01*
X163833333Y-68692914D02*
X163738095Y-68740533D01*
X165261904Y-69454819D02*
X164690476Y-69454819D01*
X164976190Y-69454819D02*
X164976190Y-68454819D01*
X164976190Y-68454819D02*
X164880952Y-68597676D01*
X164880952Y-68597676D02*
X164785714Y-68692914D01*
X164785714Y-68692914D02*
X164690476Y-68740533D01*
X175285714Y-69454819D02*
X175285714Y-68454819D01*
X175285714Y-68454819D02*
X175523809Y-68454819D01*
X175523809Y-68454819D02*
X175666666Y-68502438D01*
X175666666Y-68502438D02*
X175761904Y-68597676D01*
X175761904Y-68597676D02*
X175809523Y-68692914D01*
X175809523Y-68692914D02*
X175857142Y-68883390D01*
X175857142Y-68883390D02*
X175857142Y-69026247D01*
X175857142Y-69026247D02*
X175809523Y-69216723D01*
X175809523Y-69216723D02*
X175761904Y-69311961D01*
X175761904Y-69311961D02*
X175666666Y-69407200D01*
X175666666Y-69407200D02*
X175523809Y-69454819D01*
X175523809Y-69454819D02*
X175285714Y-69454819D01*
X176809523Y-69454819D02*
X176238095Y-69454819D01*
X176523809Y-69454819D02*
X176523809Y-68454819D01*
X176523809Y-68454819D02*
X176428571Y-68597676D01*
X176428571Y-68597676D02*
X176333333Y-68692914D01*
X176333333Y-68692914D02*
X176238095Y-68740533D01*
X177142857Y-68454819D02*
X177761904Y-68454819D01*
X177761904Y-68454819D02*
X177428571Y-68835771D01*
X177428571Y-68835771D02*
X177571428Y-68835771D01*
X177571428Y-68835771D02*
X177666666Y-68883390D01*
X177666666Y-68883390D02*
X177714285Y-68931009D01*
X177714285Y-68931009D02*
X177761904Y-69026247D01*
X177761904Y-69026247D02*
X177761904Y-69264342D01*
X177761904Y-69264342D02*
X177714285Y-69359580D01*
X177714285Y-69359580D02*
X177666666Y-69407200D01*
X177666666Y-69407200D02*
X177571428Y-69454819D01*
X177571428Y-69454819D02*
X177285714Y-69454819D01*
X177285714Y-69454819D02*
X177190476Y-69407200D01*
X177190476Y-69407200D02*
X177142857Y-69359580D01*
X130761905Y-69454819D02*
X130761905Y-68454819D01*
X130761905Y-68454819D02*
X131000000Y-68454819D01*
X131000000Y-68454819D02*
X131142857Y-68502438D01*
X131142857Y-68502438D02*
X131238095Y-68597676D01*
X131238095Y-68597676D02*
X131285714Y-68692914D01*
X131285714Y-68692914D02*
X131333333Y-68883390D01*
X131333333Y-68883390D02*
X131333333Y-69026247D01*
X131333333Y-69026247D02*
X131285714Y-69216723D01*
X131285714Y-69216723D02*
X131238095Y-69311961D01*
X131238095Y-69311961D02*
X131142857Y-69407200D01*
X131142857Y-69407200D02*
X131000000Y-69454819D01*
X131000000Y-69454819D02*
X130761905Y-69454819D01*
X132190476Y-68454819D02*
X132000000Y-68454819D01*
X132000000Y-68454819D02*
X131904762Y-68502438D01*
X131904762Y-68502438D02*
X131857143Y-68550057D01*
X131857143Y-68550057D02*
X131761905Y-68692914D01*
X131761905Y-68692914D02*
X131714286Y-68883390D01*
X131714286Y-68883390D02*
X131714286Y-69264342D01*
X131714286Y-69264342D02*
X131761905Y-69359580D01*
X131761905Y-69359580D02*
X131809524Y-69407200D01*
X131809524Y-69407200D02*
X131904762Y-69454819D01*
X131904762Y-69454819D02*
X132095238Y-69454819D01*
X132095238Y-69454819D02*
X132190476Y-69407200D01*
X132190476Y-69407200D02*
X132238095Y-69359580D01*
X132238095Y-69359580D02*
X132285714Y-69264342D01*
X132285714Y-69264342D02*
X132285714Y-69026247D01*
X132285714Y-69026247D02*
X132238095Y-68931009D01*
X132238095Y-68931009D02*
X132190476Y-68883390D01*
X132190476Y-68883390D02*
X132095238Y-68835771D01*
X132095238Y-68835771D02*
X131904762Y-68835771D01*
X131904762Y-68835771D02*
X131809524Y-68883390D01*
X131809524Y-68883390D02*
X131761905Y-68931009D01*
X131761905Y-68931009D02*
X131714286Y-69026247D01*
X110334819Y-85286666D02*
X109858628Y-85619999D01*
X110334819Y-85858094D02*
X109334819Y-85858094D01*
X109334819Y-85858094D02*
X109334819Y-85477142D01*
X109334819Y-85477142D02*
X109382438Y-85381904D01*
X109382438Y-85381904D02*
X109430057Y-85334285D01*
X109430057Y-85334285D02*
X109525295Y-85286666D01*
X109525295Y-85286666D02*
X109668152Y-85286666D01*
X109668152Y-85286666D02*
X109763390Y-85334285D01*
X109763390Y-85334285D02*
X109811009Y-85381904D01*
X109811009Y-85381904D02*
X109858628Y-85477142D01*
X109858628Y-85477142D02*
X109858628Y-85858094D01*
X109334819Y-84953332D02*
X109334819Y-84334285D01*
X109334819Y-84334285D02*
X109715771Y-84667618D01*
X109715771Y-84667618D02*
X109715771Y-84524761D01*
X109715771Y-84524761D02*
X109763390Y-84429523D01*
X109763390Y-84429523D02*
X109811009Y-84381904D01*
X109811009Y-84381904D02*
X109906247Y-84334285D01*
X109906247Y-84334285D02*
X110144342Y-84334285D01*
X110144342Y-84334285D02*
X110239580Y-84381904D01*
X110239580Y-84381904D02*
X110287200Y-84429523D01*
X110287200Y-84429523D02*
X110334819Y-84524761D01*
X110334819Y-84524761D02*
X110334819Y-84810475D01*
X110334819Y-84810475D02*
X110287200Y-84905713D01*
X110287200Y-84905713D02*
X110239580Y-84953332D01*
X98761905Y-69454819D02*
X98761905Y-68454819D01*
X98761905Y-68454819D02*
X99000000Y-68454819D01*
X99000000Y-68454819D02*
X99142857Y-68502438D01*
X99142857Y-68502438D02*
X99238095Y-68597676D01*
X99238095Y-68597676D02*
X99285714Y-68692914D01*
X99285714Y-68692914D02*
X99333333Y-68883390D01*
X99333333Y-68883390D02*
X99333333Y-69026247D01*
X99333333Y-69026247D02*
X99285714Y-69216723D01*
X99285714Y-69216723D02*
X99238095Y-69311961D01*
X99238095Y-69311961D02*
X99142857Y-69407200D01*
X99142857Y-69407200D02*
X99000000Y-69454819D01*
X99000000Y-69454819D02*
X98761905Y-69454819D01*
X100285714Y-69454819D02*
X99714286Y-69454819D01*
X100000000Y-69454819D02*
X100000000Y-68454819D01*
X100000000Y-68454819D02*
X99904762Y-68597676D01*
X99904762Y-68597676D02*
X99809524Y-68692914D01*
X99809524Y-68692914D02*
X99714286Y-68740533D01*
X117761905Y-69454819D02*
X117761905Y-68454819D01*
X117761905Y-68454819D02*
X118000000Y-68454819D01*
X118000000Y-68454819D02*
X118142857Y-68502438D01*
X118142857Y-68502438D02*
X118238095Y-68597676D01*
X118238095Y-68597676D02*
X118285714Y-68692914D01*
X118285714Y-68692914D02*
X118333333Y-68883390D01*
X118333333Y-68883390D02*
X118333333Y-69026247D01*
X118333333Y-69026247D02*
X118285714Y-69216723D01*
X118285714Y-69216723D02*
X118238095Y-69311961D01*
X118238095Y-69311961D02*
X118142857Y-69407200D01*
X118142857Y-69407200D02*
X118000000Y-69454819D01*
X118000000Y-69454819D02*
X117761905Y-69454819D01*
X119190476Y-68788152D02*
X119190476Y-69454819D01*
X118952381Y-68407200D02*
X118714286Y-69121485D01*
X118714286Y-69121485D02*
X119333333Y-69121485D01*
X181785714Y-69454819D02*
X181785714Y-68454819D01*
X181785714Y-68454819D02*
X182023809Y-68454819D01*
X182023809Y-68454819D02*
X182166666Y-68502438D01*
X182166666Y-68502438D02*
X182261904Y-68597676D01*
X182261904Y-68597676D02*
X182309523Y-68692914D01*
X182309523Y-68692914D02*
X182357142Y-68883390D01*
X182357142Y-68883390D02*
X182357142Y-69026247D01*
X182357142Y-69026247D02*
X182309523Y-69216723D01*
X182309523Y-69216723D02*
X182261904Y-69311961D01*
X182261904Y-69311961D02*
X182166666Y-69407200D01*
X182166666Y-69407200D02*
X182023809Y-69454819D01*
X182023809Y-69454819D02*
X181785714Y-69454819D01*
X183309523Y-69454819D02*
X182738095Y-69454819D01*
X183023809Y-69454819D02*
X183023809Y-68454819D01*
X183023809Y-68454819D02*
X182928571Y-68597676D01*
X182928571Y-68597676D02*
X182833333Y-68692914D01*
X182833333Y-68692914D02*
X182738095Y-68740533D01*
X184166666Y-68788152D02*
X184166666Y-69454819D01*
X183928571Y-68407200D02*
X183690476Y-69121485D01*
X183690476Y-69121485D02*
X184309523Y-69121485D01*
X168834819Y-85762857D02*
X168358628Y-86096190D01*
X168834819Y-86334285D02*
X167834819Y-86334285D01*
X167834819Y-86334285D02*
X167834819Y-85953333D01*
X167834819Y-85953333D02*
X167882438Y-85858095D01*
X167882438Y-85858095D02*
X167930057Y-85810476D01*
X167930057Y-85810476D02*
X168025295Y-85762857D01*
X168025295Y-85762857D02*
X168168152Y-85762857D01*
X168168152Y-85762857D02*
X168263390Y-85810476D01*
X168263390Y-85810476D02*
X168311009Y-85858095D01*
X168311009Y-85858095D02*
X168358628Y-85953333D01*
X168358628Y-85953333D02*
X168358628Y-86334285D01*
X168834819Y-84810476D02*
X168834819Y-85381904D01*
X168834819Y-85096190D02*
X167834819Y-85096190D01*
X167834819Y-85096190D02*
X167977676Y-85191428D01*
X167977676Y-85191428D02*
X168072914Y-85286666D01*
X168072914Y-85286666D02*
X168120533Y-85381904D01*
X167930057Y-84429523D02*
X167882438Y-84381904D01*
X167882438Y-84381904D02*
X167834819Y-84286666D01*
X167834819Y-84286666D02*
X167834819Y-84048571D01*
X167834819Y-84048571D02*
X167882438Y-83953333D01*
X167882438Y-83953333D02*
X167930057Y-83905714D01*
X167930057Y-83905714D02*
X168025295Y-83858095D01*
X168025295Y-83858095D02*
X168120533Y-83858095D01*
X168120533Y-83858095D02*
X168263390Y-83905714D01*
X168263390Y-83905714D02*
X168834819Y-84477142D01*
X168834819Y-84477142D02*
X168834819Y-83858095D01*
X155834819Y-85762857D02*
X155358628Y-86096190D01*
X155834819Y-86334285D02*
X154834819Y-86334285D01*
X154834819Y-86334285D02*
X154834819Y-85953333D01*
X154834819Y-85953333D02*
X154882438Y-85858095D01*
X154882438Y-85858095D02*
X154930057Y-85810476D01*
X154930057Y-85810476D02*
X155025295Y-85762857D01*
X155025295Y-85762857D02*
X155168152Y-85762857D01*
X155168152Y-85762857D02*
X155263390Y-85810476D01*
X155263390Y-85810476D02*
X155311009Y-85858095D01*
X155311009Y-85858095D02*
X155358628Y-85953333D01*
X155358628Y-85953333D02*
X155358628Y-86334285D01*
X155834819Y-84810476D02*
X155834819Y-85381904D01*
X155834819Y-85096190D02*
X154834819Y-85096190D01*
X154834819Y-85096190D02*
X154977676Y-85191428D01*
X154977676Y-85191428D02*
X155072914Y-85286666D01*
X155072914Y-85286666D02*
X155120533Y-85381904D01*
X154834819Y-84191428D02*
X154834819Y-84096190D01*
X154834819Y-84096190D02*
X154882438Y-84000952D01*
X154882438Y-84000952D02*
X154930057Y-83953333D01*
X154930057Y-83953333D02*
X155025295Y-83905714D01*
X155025295Y-83905714D02*
X155215771Y-83858095D01*
X155215771Y-83858095D02*
X155453866Y-83858095D01*
X155453866Y-83858095D02*
X155644342Y-83905714D01*
X155644342Y-83905714D02*
X155739580Y-83953333D01*
X155739580Y-83953333D02*
X155787200Y-84000952D01*
X155787200Y-84000952D02*
X155834819Y-84096190D01*
X155834819Y-84096190D02*
X155834819Y-84191428D01*
X155834819Y-84191428D02*
X155787200Y-84286666D01*
X155787200Y-84286666D02*
X155739580Y-84334285D01*
X155739580Y-84334285D02*
X155644342Y-84381904D01*
X155644342Y-84381904D02*
X155453866Y-84429523D01*
X155453866Y-84429523D02*
X155215771Y-84429523D01*
X155215771Y-84429523D02*
X155025295Y-84381904D01*
X155025295Y-84381904D02*
X154930057Y-84334285D01*
X154930057Y-84334285D02*
X154882438Y-84286666D01*
X154882438Y-84286666D02*
X154834819Y-84191428D01*
X111261905Y-69454819D02*
X111261905Y-68454819D01*
X111261905Y-68454819D02*
X111500000Y-68454819D01*
X111500000Y-68454819D02*
X111642857Y-68502438D01*
X111642857Y-68502438D02*
X111738095Y-68597676D01*
X111738095Y-68597676D02*
X111785714Y-68692914D01*
X111785714Y-68692914D02*
X111833333Y-68883390D01*
X111833333Y-68883390D02*
X111833333Y-69026247D01*
X111833333Y-69026247D02*
X111785714Y-69216723D01*
X111785714Y-69216723D02*
X111738095Y-69311961D01*
X111738095Y-69311961D02*
X111642857Y-69407200D01*
X111642857Y-69407200D02*
X111500000Y-69454819D01*
X111500000Y-69454819D02*
X111261905Y-69454819D01*
X112166667Y-68454819D02*
X112785714Y-68454819D01*
X112785714Y-68454819D02*
X112452381Y-68835771D01*
X112452381Y-68835771D02*
X112595238Y-68835771D01*
X112595238Y-68835771D02*
X112690476Y-68883390D01*
X112690476Y-68883390D02*
X112738095Y-68931009D01*
X112738095Y-68931009D02*
X112785714Y-69026247D01*
X112785714Y-69026247D02*
X112785714Y-69264342D01*
X112785714Y-69264342D02*
X112738095Y-69359580D01*
X112738095Y-69359580D02*
X112690476Y-69407200D01*
X112690476Y-69407200D02*
X112595238Y-69454819D01*
X112595238Y-69454819D02*
X112309524Y-69454819D01*
X112309524Y-69454819D02*
X112214286Y-69407200D01*
X112214286Y-69407200D02*
X112166667Y-69359580D01*
X123334819Y-85286666D02*
X122858628Y-85619999D01*
X123334819Y-85858094D02*
X122334819Y-85858094D01*
X122334819Y-85858094D02*
X122334819Y-85477142D01*
X122334819Y-85477142D02*
X122382438Y-85381904D01*
X122382438Y-85381904D02*
X122430057Y-85334285D01*
X122430057Y-85334285D02*
X122525295Y-85286666D01*
X122525295Y-85286666D02*
X122668152Y-85286666D01*
X122668152Y-85286666D02*
X122763390Y-85334285D01*
X122763390Y-85334285D02*
X122811009Y-85381904D01*
X122811009Y-85381904D02*
X122858628Y-85477142D01*
X122858628Y-85477142D02*
X122858628Y-85858094D01*
X122334819Y-84381904D02*
X122334819Y-84858094D01*
X122334819Y-84858094D02*
X122811009Y-84905713D01*
X122811009Y-84905713D02*
X122763390Y-84858094D01*
X122763390Y-84858094D02*
X122715771Y-84762856D01*
X122715771Y-84762856D02*
X122715771Y-84524761D01*
X122715771Y-84524761D02*
X122763390Y-84429523D01*
X122763390Y-84429523D02*
X122811009Y-84381904D01*
X122811009Y-84381904D02*
X122906247Y-84334285D01*
X122906247Y-84334285D02*
X123144342Y-84334285D01*
X123144342Y-84334285D02*
X123239580Y-84381904D01*
X123239580Y-84381904D02*
X123287200Y-84429523D01*
X123287200Y-84429523D02*
X123334819Y-84524761D01*
X123334819Y-84524761D02*
X123334819Y-84762856D01*
X123334819Y-84762856D02*
X123287200Y-84858094D01*
X123287200Y-84858094D02*
X123239580Y-84905713D01*
X136761905Y-69454819D02*
X136761905Y-68454819D01*
X136761905Y-68454819D02*
X137000000Y-68454819D01*
X137000000Y-68454819D02*
X137142857Y-68502438D01*
X137142857Y-68502438D02*
X137238095Y-68597676D01*
X137238095Y-68597676D02*
X137285714Y-68692914D01*
X137285714Y-68692914D02*
X137333333Y-68883390D01*
X137333333Y-68883390D02*
X137333333Y-69026247D01*
X137333333Y-69026247D02*
X137285714Y-69216723D01*
X137285714Y-69216723D02*
X137238095Y-69311961D01*
X137238095Y-69311961D02*
X137142857Y-69407200D01*
X137142857Y-69407200D02*
X137000000Y-69454819D01*
X137000000Y-69454819D02*
X136761905Y-69454819D01*
X137666667Y-68454819D02*
X138333333Y-68454819D01*
X138333333Y-68454819D02*
X137904762Y-69454819D01*
D11*
%TO.C,D12*%
X172295000Y-70710000D02*
X169205000Y-70710000D01*
X170750000Y-76260000D02*
G75*
G02*
X169205170Y-70710000I0J2990000D01*
G01*
X172294830Y-70710000D02*
G75*
G02*
X170750000Y-76260000I-1544830J-2560000D01*
G01*
X173250000Y-73270000D02*
G75*
G02*
X168250000Y-73270000I-2500000J0D01*
G01*
X168250000Y-73270000D02*
G75*
G02*
X173250000Y-73270000I2500000J0D01*
G01*
%TO.C,R7*%
X138250000Y-78540000D02*
X138250000Y-81850000D01*
X138250000Y-91700000D02*
X138250000Y-88390000D01*
X136880000Y-88390000D02*
X139620000Y-88390000D01*
X139620000Y-81850000D01*
X136880000Y-81850000D01*
X136880000Y-88390000D01*
%TO.C,D2*%
X107295000Y-70710000D02*
X104205000Y-70710000D01*
X105750000Y-76260000D02*
G75*
G02*
X104205170Y-70710000I0J2990000D01*
G01*
X107294830Y-70710000D02*
G75*
G02*
X105750000Y-76260000I-1544830J-2560000D01*
G01*
X108250000Y-73270000D02*
G75*
G02*
X103250000Y-73270000I-2500000J0D01*
G01*
X103250000Y-73270000D02*
G75*
G02*
X108250000Y-73270000I2500000J0D01*
G01*
%TO.C,R16*%
X86750000Y-82540000D02*
X86750000Y-85850000D01*
X86750000Y-95700000D02*
X86750000Y-92390000D01*
X85380000Y-92390000D02*
X88120000Y-92390000D01*
X88120000Y-85850000D01*
X85380000Y-85850000D01*
X85380000Y-92390000D01*
%TO.C,R6*%
X131750000Y-78540000D02*
X131750000Y-81850000D01*
X131750000Y-91700000D02*
X131750000Y-88390000D01*
X130380000Y-88390000D02*
X133120000Y-88390000D01*
X133120000Y-81850000D01*
X130380000Y-81850000D01*
X130380000Y-88390000D01*
%TO.C,R14*%
X183250000Y-78540000D02*
X183250000Y-81850000D01*
X183250000Y-91700000D02*
X183250000Y-88390000D01*
X181880000Y-88390000D02*
X184620000Y-88390000D01*
X184620000Y-81850000D01*
X181880000Y-81850000D01*
X181880000Y-88390000D01*
%TO.C,R4*%
X118750000Y-78540000D02*
X118750000Y-81850000D01*
X118750000Y-91700000D02*
X118750000Y-88390000D01*
X117380000Y-88390000D02*
X120120000Y-88390000D01*
X120120000Y-81850000D01*
X117380000Y-81850000D01*
X117380000Y-88390000D01*
%TO.C,R13*%
X176750000Y-78540000D02*
X176750000Y-81850000D01*
X176750000Y-91700000D02*
X176750000Y-88390000D01*
X175380000Y-88390000D02*
X178120000Y-88390000D01*
X178120000Y-81850000D01*
X175380000Y-81850000D01*
X175380000Y-88390000D01*
%TO.C,R9*%
X151250000Y-78540000D02*
X151250000Y-81850000D01*
X151250000Y-91700000D02*
X151250000Y-88390000D01*
X149880000Y-88390000D02*
X152620000Y-88390000D01*
X152620000Y-81850000D01*
X149880000Y-81850000D01*
X149880000Y-88390000D01*
%TO.C,D10*%
X159295000Y-70710000D02*
X156205000Y-70710000D01*
X157750000Y-76260000D02*
G75*
G02*
X156205170Y-70710000I0J2990000D01*
G01*
X159294830Y-70710000D02*
G75*
G02*
X157750000Y-76260000I-1544830J-2560000D01*
G01*
X160250000Y-73270000D02*
G75*
G02*
X155250000Y-73270000I-2500000J0D01*
G01*
X155250000Y-73270000D02*
G75*
G02*
X160250000Y-73270000I2500000J0D01*
G01*
%TO.C,D15*%
X191295000Y-70710000D02*
X188205000Y-70710000D01*
X189750000Y-76260000D02*
G75*
G02*
X188205170Y-70710000I0J2990000D01*
G01*
X191294830Y-70710000D02*
G75*
G02*
X189750000Y-76260000I-1544830J-2560000D01*
G01*
X192250000Y-73270000D02*
G75*
G02*
X187250000Y-73270000I-2500000J0D01*
G01*
X187250000Y-73270000D02*
G75*
G02*
X192250000Y-73270000I2500000J0D01*
G01*
%TO.C,P1*%
X82750000Y-73750000D02*
X82750000Y-75250000D01*
X84000000Y-77750000D02*
X88500000Y-77750000D01*
X88500000Y-71250000D02*
X84000000Y-71250000D01*
X89750000Y-75250000D02*
X89750000Y-73750000D01*
%TO.C,R8*%
X144750000Y-78540000D02*
X144750000Y-81850000D01*
X144750000Y-91700000D02*
X144750000Y-88390000D01*
X143380000Y-88390000D02*
X146120000Y-88390000D01*
X146120000Y-81850000D01*
X143380000Y-81850000D01*
X143380000Y-88390000D01*
%TO.C,D8*%
X146295000Y-70710000D02*
X143205000Y-70710000D01*
X144750000Y-76260000D02*
G75*
G02*
X143205170Y-70710000I0J2990000D01*
G01*
X146294830Y-70710000D02*
G75*
G02*
X144750000Y-76260000I-1544830J-2560000D01*
G01*
X147250000Y-73270000D02*
G75*
G02*
X142250000Y-73270000I-2500000J0D01*
G01*
X142250000Y-73270000D02*
G75*
G02*
X147250000Y-73270000I2500000J0D01*
G01*
%TO.C,D9*%
X152795000Y-70710000D02*
X149705000Y-70710000D01*
X151250000Y-76260000D02*
G75*
G02*
X149705170Y-70710000I0J2990000D01*
G01*
X152794830Y-70710000D02*
G75*
G02*
X151250000Y-76260000I-1544830J-2560000D01*
G01*
X153750000Y-73270000D02*
G75*
G02*
X148750000Y-73270000I-2500000J0D01*
G01*
X148750000Y-73270000D02*
G75*
G02*
X153750000Y-73270000I2500000J0D01*
G01*
%TO.C,R2*%
X105750000Y-78540000D02*
X105750000Y-81850000D01*
X105750000Y-91700000D02*
X105750000Y-88390000D01*
X104380000Y-88390000D02*
X107120000Y-88390000D01*
X107120000Y-81850000D01*
X104380000Y-81850000D01*
X104380000Y-88390000D01*
%TO.C,D5*%
X126795000Y-70710000D02*
X123705000Y-70710000D01*
X125250000Y-76260000D02*
G75*
G02*
X123705170Y-70710000I0J2990000D01*
G01*
X126794830Y-70710000D02*
G75*
G02*
X125250000Y-76260000I-1544830J-2560000D01*
G01*
X127750000Y-73270000D02*
G75*
G02*
X122750000Y-73270000I-2500000J0D01*
G01*
X122750000Y-73270000D02*
G75*
G02*
X127750000Y-73270000I2500000J0D01*
G01*
%TO.C,J1*%
X137190000Y-109890000D02*
X137190000Y-117360000D01*
X137190000Y-117360000D02*
X191310000Y-117360000D01*
X138250000Y-110750000D02*
X139000000Y-110750000D01*
X138250000Y-115050000D02*
X138250000Y-110750000D01*
X138250000Y-116400000D02*
X138500000Y-115400000D01*
X138500000Y-115400000D02*
X139000000Y-115400000D01*
X139000000Y-115050000D02*
X138250000Y-115050000D01*
X139000000Y-115400000D02*
X139000000Y-115050000D01*
X140500000Y-110750000D02*
X141250000Y-110750000D01*
X140500000Y-115050000D02*
X140500000Y-115400000D01*
X140500000Y-115400000D02*
X141000000Y-115400000D01*
X141000000Y-115400000D02*
X141250000Y-116400000D01*
X141250000Y-110750000D02*
X141250000Y-115050000D01*
X141250000Y-115050000D02*
X140500000Y-115050000D01*
X141250000Y-116400000D02*
X138250000Y-116400000D01*
X141750000Y-110750000D02*
X142500000Y-110750000D01*
X141750000Y-115050000D02*
X141750000Y-110750000D01*
X141750000Y-116400000D02*
X142000000Y-115400000D01*
X142000000Y-115400000D02*
X142500000Y-115400000D01*
X142500000Y-115050000D02*
X141750000Y-115050000D01*
X142500000Y-115400000D02*
X142500000Y-115050000D01*
X144000000Y-110750000D02*
X144750000Y-110750000D01*
X144000000Y-115050000D02*
X144000000Y-115400000D01*
X144000000Y-115400000D02*
X144500000Y-115400000D01*
X144500000Y-115400000D02*
X144750000Y-116400000D01*
X144750000Y-110750000D02*
X144750000Y-115050000D01*
X144750000Y-115050000D02*
X144000000Y-115050000D01*
X144750000Y-116400000D02*
X141750000Y-116400000D01*
X145250000Y-110750000D02*
X146000000Y-110750000D01*
X145250000Y-115050000D02*
X145250000Y-110750000D01*
X145250000Y-116400000D02*
X145500000Y-115400000D01*
X145500000Y-115400000D02*
X146000000Y-115400000D01*
X146000000Y-115050000D02*
X145250000Y-115050000D01*
X146000000Y-115400000D02*
X146000000Y-115050000D01*
X147500000Y-110750000D02*
X148250000Y-110750000D01*
X147500000Y-115050000D02*
X147500000Y-115400000D01*
X147500000Y-115400000D02*
X148000000Y-115400000D01*
X148000000Y-115400000D02*
X148250000Y-116400000D01*
X148250000Y-110750000D02*
X148250000Y-115050000D01*
X148250000Y-115050000D02*
X147500000Y-115050000D01*
X148250000Y-116400000D02*
X145250000Y-116400000D01*
X148750000Y-110750000D02*
X149500000Y-110750000D01*
X148750000Y-115050000D02*
X148750000Y-110750000D01*
X148750000Y-116400000D02*
X149000000Y-115400000D01*
X149000000Y-115400000D02*
X149500000Y-115400000D01*
X149500000Y-115050000D02*
X148750000Y-115050000D01*
X149500000Y-115400000D02*
X149500000Y-115050000D01*
X151000000Y-110750000D02*
X151750000Y-110750000D01*
X151000000Y-115050000D02*
X151000000Y-115400000D01*
X151000000Y-115400000D02*
X151500000Y-115400000D01*
X151500000Y-115400000D02*
X151750000Y-116400000D01*
X151750000Y-110750000D02*
X151750000Y-115050000D01*
X151750000Y-115050000D02*
X151000000Y-115050000D01*
X151750000Y-116400000D02*
X148750000Y-116400000D01*
X152250000Y-110750000D02*
X153000000Y-110750000D01*
X152250000Y-115050000D02*
X152250000Y-110750000D01*
X152250000Y-116400000D02*
X152500000Y-115400000D01*
X152500000Y-115400000D02*
X153000000Y-115400000D01*
X153000000Y-115050000D02*
X152250000Y-115050000D01*
X153000000Y-115400000D02*
X153000000Y-115050000D01*
X154500000Y-110750000D02*
X155250000Y-110750000D01*
X154500000Y-115050000D02*
X154500000Y-115400000D01*
X154500000Y-115400000D02*
X155000000Y-115400000D01*
X155000000Y-115400000D02*
X155250000Y-116400000D01*
X155250000Y-110750000D02*
X155250000Y-115050000D01*
X155250000Y-115050000D02*
X154500000Y-115050000D01*
X155250000Y-116400000D02*
X152250000Y-116400000D01*
X155750000Y-110750000D02*
X156500000Y-110750000D01*
X155750000Y-115050000D02*
X155750000Y-110750000D01*
X155750000Y-116400000D02*
X156000000Y-115400000D01*
X156000000Y-115400000D02*
X156500000Y-115400000D01*
X156500000Y-115050000D02*
X155750000Y-115050000D01*
X156500000Y-115400000D02*
X156500000Y-115050000D01*
X158000000Y-110750000D02*
X158750000Y-110750000D01*
X158000000Y-115050000D02*
X158000000Y-115400000D01*
X158000000Y-115400000D02*
X158500000Y-115400000D01*
X158500000Y-115400000D02*
X158750000Y-116400000D01*
X158750000Y-110750000D02*
X158750000Y-115050000D01*
X158750000Y-115050000D02*
X158000000Y-115050000D01*
X158750000Y-116400000D02*
X155750000Y-116400000D01*
X159250000Y-110750000D02*
X160000000Y-110750000D01*
X159250000Y-115050000D02*
X159250000Y-110750000D01*
X159250000Y-116400000D02*
X159500000Y-115400000D01*
X159500000Y-115400000D02*
X160000000Y-115400000D01*
X160000000Y-115050000D02*
X159250000Y-115050000D01*
X160000000Y-115400000D02*
X160000000Y-115050000D01*
X161500000Y-110750000D02*
X162250000Y-110750000D01*
X161500000Y-115050000D02*
X161500000Y-115400000D01*
X161500000Y-115400000D02*
X162000000Y-115400000D01*
X162000000Y-115400000D02*
X162250000Y-116400000D01*
X162250000Y-110750000D02*
X162250000Y-115050000D01*
X162250000Y-115050000D02*
X161500000Y-115050000D01*
X162250000Y-116400000D02*
X159250000Y-116400000D01*
X162750000Y-110750000D02*
X163500000Y-110750000D01*
X162750000Y-115050000D02*
X162750000Y-110750000D01*
X162750000Y-116400000D02*
X163000000Y-115400000D01*
X163000000Y-115400000D02*
X163500000Y-115400000D01*
X163500000Y-115050000D02*
X162750000Y-115050000D01*
X163500000Y-115400000D02*
X163500000Y-115050000D01*
X165000000Y-110750000D02*
X165750000Y-110750000D01*
X165000000Y-115050000D02*
X165000000Y-115400000D01*
X165000000Y-115400000D02*
X165500000Y-115400000D01*
X165500000Y-115400000D02*
X165750000Y-116400000D01*
X165750000Y-110750000D02*
X165750000Y-115050000D01*
X165750000Y-115050000D02*
X165000000Y-115050000D01*
X165750000Y-116400000D02*
X162750000Y-116400000D01*
X166250000Y-110750000D02*
X167000000Y-110750000D01*
X166250000Y-115050000D02*
X166250000Y-110750000D01*
X166250000Y-116400000D02*
X166500000Y-115400000D01*
X166500000Y-115400000D02*
X167000000Y-115400000D01*
X167000000Y-115050000D02*
X166250000Y-115050000D01*
X167000000Y-115400000D02*
X167000000Y-115050000D01*
X168500000Y-110750000D02*
X169250000Y-110750000D01*
X168500000Y-115050000D02*
X168500000Y-115400000D01*
X168500000Y-115400000D02*
X169000000Y-115400000D01*
X169000000Y-115400000D02*
X169250000Y-116400000D01*
X169250000Y-110750000D02*
X169250000Y-115050000D01*
X169250000Y-115050000D02*
X168500000Y-115050000D01*
X169250000Y-116400000D02*
X166250000Y-116400000D01*
X169750000Y-110750000D02*
X170500000Y-110750000D01*
X169750000Y-115050000D02*
X169750000Y-110750000D01*
X169750000Y-116400000D02*
X170000000Y-115400000D01*
X170000000Y-115400000D02*
X170500000Y-115400000D01*
X170500000Y-115050000D02*
X169750000Y-115050000D01*
X170500000Y-115400000D02*
X170500000Y-115050000D01*
X172000000Y-110750000D02*
X172750000Y-110750000D01*
X172000000Y-115050000D02*
X172000000Y-115400000D01*
X172000000Y-115400000D02*
X172500000Y-115400000D01*
X172500000Y-115400000D02*
X172750000Y-116400000D01*
X172750000Y-110750000D02*
X172750000Y-115050000D01*
X172750000Y-115050000D02*
X172000000Y-115050000D01*
X172750000Y-116400000D02*
X169750000Y-116400000D01*
X173250000Y-110750000D02*
X174000000Y-110750000D01*
X173250000Y-115050000D02*
X173250000Y-110750000D01*
X173250000Y-116400000D02*
X173500000Y-115400000D01*
X173500000Y-115400000D02*
X174000000Y-115400000D01*
X174000000Y-115050000D02*
X173250000Y-115050000D01*
X174000000Y-115400000D02*
X174000000Y-115050000D01*
X175500000Y-110750000D02*
X176250000Y-110750000D01*
X175500000Y-115050000D02*
X175500000Y-115400000D01*
X175500000Y-115400000D02*
X176000000Y-115400000D01*
X176000000Y-115400000D02*
X176250000Y-116400000D01*
X176250000Y-110750000D02*
X176250000Y-115050000D01*
X176250000Y-115050000D02*
X175500000Y-115050000D01*
X176250000Y-116400000D02*
X173250000Y-116400000D01*
X176750000Y-110750000D02*
X177500000Y-110750000D01*
X176750000Y-115050000D02*
X176750000Y-110750000D01*
X176750000Y-116400000D02*
X177000000Y-115400000D01*
X177000000Y-115400000D02*
X177500000Y-115400000D01*
X177500000Y-115050000D02*
X176750000Y-115050000D01*
X177500000Y-115400000D02*
X177500000Y-115050000D01*
X179000000Y-110750000D02*
X179750000Y-110750000D01*
X179000000Y-115050000D02*
X179000000Y-115400000D01*
X179000000Y-115400000D02*
X179500000Y-115400000D01*
X179500000Y-115400000D02*
X179750000Y-116400000D01*
X179750000Y-110750000D02*
X179750000Y-115050000D01*
X179750000Y-115050000D02*
X179000000Y-115050000D01*
X179750000Y-116400000D02*
X176750000Y-116400000D01*
X180250000Y-110750000D02*
X181000000Y-110750000D01*
X180250000Y-115050000D02*
X180250000Y-110750000D01*
X180250000Y-116400000D02*
X180500000Y-115400000D01*
X180500000Y-115400000D02*
X181000000Y-115400000D01*
X181000000Y-115050000D02*
X180250000Y-115050000D01*
X181000000Y-115400000D02*
X181000000Y-115050000D01*
X182500000Y-110750000D02*
X183250000Y-110750000D01*
X182500000Y-115050000D02*
X182500000Y-115400000D01*
X182500000Y-115400000D02*
X183000000Y-115400000D01*
X183000000Y-115400000D02*
X183250000Y-116400000D01*
X183250000Y-110750000D02*
X183250000Y-115050000D01*
X183250000Y-115050000D02*
X182500000Y-115050000D01*
X183250000Y-116400000D02*
X180250000Y-116400000D01*
X183750000Y-110750000D02*
X184500000Y-110750000D01*
X183750000Y-115050000D02*
X183750000Y-110750000D01*
X183750000Y-116400000D02*
X184000000Y-115400000D01*
X184000000Y-115400000D02*
X184500000Y-115400000D01*
X184500000Y-115050000D02*
X183750000Y-115050000D01*
X184500000Y-115400000D02*
X184500000Y-115050000D01*
X186000000Y-110750000D02*
X186750000Y-110750000D01*
X186000000Y-115050000D02*
X186000000Y-115400000D01*
X186000000Y-115400000D02*
X186500000Y-115400000D01*
X186500000Y-115400000D02*
X186750000Y-116400000D01*
X186750000Y-110750000D02*
X186750000Y-115050000D01*
X186750000Y-115050000D02*
X186000000Y-115050000D01*
X186750000Y-116400000D02*
X183750000Y-116400000D01*
X187250000Y-110750000D02*
X188000000Y-110750000D01*
X187250000Y-115050000D02*
X187250000Y-110750000D01*
X187250000Y-116400000D02*
X187500000Y-115400000D01*
X187500000Y-115400000D02*
X188000000Y-115400000D01*
X188000000Y-115050000D02*
X187250000Y-115050000D01*
X188000000Y-115400000D02*
X188000000Y-115050000D01*
X189500000Y-110750000D02*
X190250000Y-110750000D01*
X189500000Y-115050000D02*
X189500000Y-115400000D01*
X189500000Y-115400000D02*
X190000000Y-115400000D01*
X190000000Y-115400000D02*
X190250000Y-116400000D01*
X190250000Y-110750000D02*
X190250000Y-115050000D01*
X190250000Y-115050000D02*
X189500000Y-115050000D01*
X190250000Y-116400000D02*
X187250000Y-116400000D01*
X191310000Y-109890000D02*
X137190000Y-109890000D01*
X191310000Y-117360000D02*
X191310000Y-109890000D01*
X191700000Y-116500000D02*
X191700000Y-117750000D01*
X191700000Y-117750000D02*
X189700000Y-117750000D01*
X140500000Y-110750000D02*
G75*
G02*
X139000353Y-110750156I-750000J1700000D01*
G01*
X144000000Y-110750000D02*
G75*
G02*
X142500353Y-110750156I-750000J1700000D01*
G01*
X147500000Y-110750000D02*
G75*
G02*
X146000353Y-110750156I-750000J1700000D01*
G01*
X151000000Y-110750000D02*
G75*
G02*
X149500353Y-110750156I-750000J1700000D01*
G01*
X154500000Y-110750000D02*
G75*
G02*
X153000353Y-110750156I-750000J1700000D01*
G01*
X158000000Y-110750000D02*
G75*
G02*
X156500353Y-110750156I-750000J1700000D01*
G01*
X161500000Y-110750000D02*
G75*
G02*
X160000353Y-110750156I-750000J1700000D01*
G01*
X165000000Y-110750000D02*
G75*
G02*
X163500353Y-110750156I-750000J1700000D01*
G01*
X168500000Y-110750000D02*
G75*
G02*
X167000353Y-110750156I-750000J1700000D01*
G01*
X172000000Y-110750000D02*
G75*
G02*
X170500353Y-110750156I-750000J1700000D01*
G01*
X175500000Y-110750000D02*
G75*
G02*
X174000353Y-110750156I-750000J1700000D01*
G01*
X179000000Y-110750000D02*
G75*
G02*
X177500353Y-110750156I-750000J1700000D01*
G01*
X182500000Y-110750000D02*
G75*
G02*
X181000353Y-110750156I-750000J1700000D01*
G01*
X186000000Y-110750000D02*
G75*
G02*
X184500353Y-110750156I-750000J1700000D01*
G01*
X189500000Y-110750000D02*
G75*
G02*
X188000353Y-110750156I-750000J1700000D01*
G01*
%TO.C,R1*%
X99250000Y-78540000D02*
X99250000Y-81850000D01*
X99250000Y-91700000D02*
X99250000Y-88390000D01*
X97880000Y-88390000D02*
X100620000Y-88390000D01*
X100620000Y-81850000D01*
X97880000Y-81850000D01*
X97880000Y-88390000D01*
%TO.C,R15*%
X189750000Y-78540000D02*
X189750000Y-81850000D01*
X189750000Y-91700000D02*
X189750000Y-88390000D01*
X188380000Y-88390000D02*
X191120000Y-88390000D01*
X191120000Y-81850000D01*
X188380000Y-81850000D01*
X188380000Y-88390000D01*
%TO.C,R11*%
X164250000Y-78540000D02*
X164250000Y-81850000D01*
X164250000Y-91700000D02*
X164250000Y-88390000D01*
X162880000Y-88390000D02*
X165620000Y-88390000D01*
X165620000Y-81850000D01*
X162880000Y-81850000D01*
X162880000Y-88390000D01*
%TO.C,P2*%
X197000000Y-73500000D02*
X197000000Y-75000000D01*
X198250000Y-77500000D02*
X202750000Y-77500000D01*
X202750000Y-71000000D02*
X198250000Y-71000000D01*
X204000000Y-75000000D02*
X204000000Y-73500000D01*
%TO.C,R17*%
X199750000Y-84540000D02*
X199750000Y-87850000D01*
X199750000Y-97700000D02*
X199750000Y-94390000D01*
X198380000Y-94390000D02*
X201120000Y-94390000D01*
X201120000Y-87850000D01*
X198380000Y-87850000D01*
X198380000Y-94390000D01*
%TO.C,J2*%
X103690000Y-106390000D02*
X103690000Y-113860000D01*
X103690000Y-113860000D02*
X122810000Y-113860000D01*
X104750000Y-107250000D02*
X105500000Y-107250000D01*
X104750000Y-111550000D02*
X104750000Y-107250000D01*
X104750000Y-112900000D02*
X105000000Y-111900000D01*
X105000000Y-111900000D02*
X105500000Y-111900000D01*
X105500000Y-111550000D02*
X104750000Y-111550000D01*
X105500000Y-111900000D02*
X105500000Y-111550000D01*
X107000000Y-107250000D02*
X107750000Y-107250000D01*
X107000000Y-111550000D02*
X107000000Y-111900000D01*
X107000000Y-111900000D02*
X107500000Y-111900000D01*
X107500000Y-111900000D02*
X107750000Y-112900000D01*
X107750000Y-107250000D02*
X107750000Y-111550000D01*
X107750000Y-111550000D02*
X107000000Y-111550000D01*
X107750000Y-112900000D02*
X104750000Y-112900000D01*
X108250000Y-107250000D02*
X109000000Y-107250000D01*
X108250000Y-111550000D02*
X108250000Y-107250000D01*
X108250000Y-112900000D02*
X108500000Y-111900000D01*
X108500000Y-111900000D02*
X109000000Y-111900000D01*
X109000000Y-111550000D02*
X108250000Y-111550000D01*
X109000000Y-111900000D02*
X109000000Y-111550000D01*
X110500000Y-107250000D02*
X111250000Y-107250000D01*
X110500000Y-111550000D02*
X110500000Y-111900000D01*
X110500000Y-111900000D02*
X111000000Y-111900000D01*
X111000000Y-111900000D02*
X111250000Y-112900000D01*
X111250000Y-107250000D02*
X111250000Y-111550000D01*
X111250000Y-111550000D02*
X110500000Y-111550000D01*
X111250000Y-112900000D02*
X108250000Y-112900000D01*
X111750000Y-107250000D02*
X112500000Y-107250000D01*
X111750000Y-111550000D02*
X111750000Y-107250000D01*
X111750000Y-112900000D02*
X112000000Y-111900000D01*
X112000000Y-111900000D02*
X112500000Y-111900000D01*
X112500000Y-111550000D02*
X111750000Y-111550000D01*
X112500000Y-111900000D02*
X112500000Y-111550000D01*
X114000000Y-107250000D02*
X114750000Y-107250000D01*
X114000000Y-111550000D02*
X114000000Y-111900000D01*
X114000000Y-111900000D02*
X114500000Y-111900000D01*
X114500000Y-111900000D02*
X114750000Y-112900000D01*
X114750000Y-107250000D02*
X114750000Y-111550000D01*
X114750000Y-111550000D02*
X114000000Y-111550000D01*
X114750000Y-112900000D02*
X111750000Y-112900000D01*
X115250000Y-107250000D02*
X116000000Y-107250000D01*
X115250000Y-111550000D02*
X115250000Y-107250000D01*
X115250000Y-112900000D02*
X115500000Y-111900000D01*
X115500000Y-111900000D02*
X116000000Y-111900000D01*
X116000000Y-111550000D02*
X115250000Y-111550000D01*
X116000000Y-111900000D02*
X116000000Y-111550000D01*
X117500000Y-107250000D02*
X118250000Y-107250000D01*
X117500000Y-111550000D02*
X117500000Y-111900000D01*
X117500000Y-111900000D02*
X118000000Y-111900000D01*
X118000000Y-111900000D02*
X118250000Y-112900000D01*
X118250000Y-107250000D02*
X118250000Y-111550000D01*
X118250000Y-111550000D02*
X117500000Y-111550000D01*
X118250000Y-112900000D02*
X115250000Y-112900000D01*
X118750000Y-107250000D02*
X119500000Y-107250000D01*
X118750000Y-111550000D02*
X118750000Y-107250000D01*
X118750000Y-112900000D02*
X119000000Y-111900000D01*
X119000000Y-111900000D02*
X119500000Y-111900000D01*
X119500000Y-111550000D02*
X118750000Y-111550000D01*
X119500000Y-111900000D02*
X119500000Y-111550000D01*
X121000000Y-107250000D02*
X121750000Y-107250000D01*
X121000000Y-111550000D02*
X121000000Y-111900000D01*
X121000000Y-111900000D02*
X121500000Y-111900000D01*
X121500000Y-111900000D02*
X121750000Y-112900000D01*
X121750000Y-107250000D02*
X121750000Y-111550000D01*
X121750000Y-111550000D02*
X121000000Y-111550000D01*
X121750000Y-112900000D02*
X118750000Y-112900000D01*
X122810000Y-106390000D02*
X103690000Y-106390000D01*
X122810000Y-113860000D02*
X122810000Y-106390000D01*
X123200000Y-113000000D02*
X123200000Y-114250000D01*
X123200000Y-114250000D02*
X121200000Y-114250000D01*
X107000000Y-107250000D02*
G75*
G02*
X105500353Y-107250156I-750000J1700000D01*
G01*
X110500000Y-107250000D02*
G75*
G02*
X109000353Y-107250156I-750000J1700000D01*
G01*
X114000000Y-107250000D02*
G75*
G02*
X112500353Y-107250156I-750000J1700000D01*
G01*
X117500000Y-107250000D02*
G75*
G02*
X116000353Y-107250156I-750000J1700000D01*
G01*
X121000000Y-107250000D02*
G75*
G02*
X119500353Y-107250156I-750000J1700000D01*
G01*
%TO.C,D11*%
X165795000Y-70710000D02*
X162705000Y-70710000D01*
X164250000Y-76260000D02*
G75*
G02*
X162705170Y-70710000I0J2990000D01*
G01*
X165794830Y-70710000D02*
G75*
G02*
X164250000Y-76260000I-1544830J-2560000D01*
G01*
X166750000Y-73270000D02*
G75*
G02*
X161750000Y-73270000I-2500000J0D01*
G01*
X161750000Y-73270000D02*
G75*
G02*
X166750000Y-73270000I2500000J0D01*
G01*
%TO.C,D13*%
X178295000Y-70710000D02*
X175205000Y-70710000D01*
X176750000Y-76260000D02*
G75*
G02*
X175205170Y-70710000I0J2990000D01*
G01*
X178294830Y-70710000D02*
G75*
G02*
X176750000Y-76260000I-1544830J-2560000D01*
G01*
X179250000Y-73270000D02*
G75*
G02*
X174250000Y-73270000I-2500000J0D01*
G01*
X174250000Y-73270000D02*
G75*
G02*
X179250000Y-73270000I2500000J0D01*
G01*
%TO.C,D6*%
X133295000Y-70710000D02*
X130205000Y-70710000D01*
X131750000Y-76260000D02*
G75*
G02*
X130205170Y-70710000I0J2990000D01*
G01*
X133294830Y-70710000D02*
G75*
G02*
X131750000Y-76260000I-1544830J-2560000D01*
G01*
X134250000Y-73270000D02*
G75*
G02*
X129250000Y-73270000I-2500000J0D01*
G01*
X129250000Y-73270000D02*
G75*
G02*
X134250000Y-73270000I2500000J0D01*
G01*
%TO.C,R3*%
X112250000Y-78540000D02*
X112250000Y-81850000D01*
X112250000Y-91700000D02*
X112250000Y-88390000D01*
X110880000Y-88390000D02*
X113620000Y-88390000D01*
X113620000Y-81850000D01*
X110880000Y-81850000D01*
X110880000Y-88390000D01*
%TO.C,D1*%
X100795000Y-70710000D02*
X97705000Y-70710000D01*
X99250000Y-76260000D02*
G75*
G02*
X97705170Y-70710000I0J2990000D01*
G01*
X100794830Y-70710000D02*
G75*
G02*
X99250000Y-76260000I-1544830J-2560000D01*
G01*
X101750000Y-73270000D02*
G75*
G02*
X96750000Y-73270000I-2500000J0D01*
G01*
X96750000Y-73270000D02*
G75*
G02*
X101750000Y-73270000I2500000J0D01*
G01*
%TO.C,D4*%
X120295000Y-70710000D02*
X117205000Y-70710000D01*
X118750000Y-76260000D02*
G75*
G02*
X117205170Y-70710000I0J2990000D01*
G01*
X120294830Y-70710000D02*
G75*
G02*
X118750000Y-76260000I-1544830J-2560000D01*
G01*
X121250000Y-73270000D02*
G75*
G02*
X116250000Y-73270000I-2500000J0D01*
G01*
X116250000Y-73270000D02*
G75*
G02*
X121250000Y-73270000I2500000J0D01*
G01*
%TO.C,D14*%
X184795000Y-70710000D02*
X181705000Y-70710000D01*
X183250000Y-76260000D02*
G75*
G02*
X181705170Y-70710000I0J2990000D01*
G01*
X184794830Y-70710000D02*
G75*
G02*
X183250000Y-76260000I-1544830J-2560000D01*
G01*
X185750000Y-73270000D02*
G75*
G02*
X180750000Y-73270000I-2500000J0D01*
G01*
X180750000Y-73270000D02*
G75*
G02*
X185750000Y-73270000I2500000J0D01*
G01*
%TO.C,R12*%
X170750000Y-78540000D02*
X170750000Y-81850000D01*
X170750000Y-91700000D02*
X170750000Y-88390000D01*
X169380000Y-88390000D02*
X172120000Y-88390000D01*
X172120000Y-81850000D01*
X169380000Y-81850000D01*
X169380000Y-88390000D01*
%TO.C,R10*%
X157750000Y-78540000D02*
X157750000Y-81850000D01*
X157750000Y-91700000D02*
X157750000Y-88390000D01*
X156380000Y-88390000D02*
X159120000Y-88390000D01*
X159120000Y-81850000D01*
X156380000Y-81850000D01*
X156380000Y-88390000D01*
%TO.C,D3*%
X113795000Y-70710000D02*
X110705000Y-70710000D01*
X112250000Y-76260000D02*
G75*
G02*
X110705170Y-70710000I0J2990000D01*
G01*
X113794830Y-70710000D02*
G75*
G02*
X112250000Y-76260000I-1544830J-2560000D01*
G01*
X114750000Y-73270000D02*
G75*
G02*
X109750000Y-73270000I-2500000J0D01*
G01*
X109750000Y-73270000D02*
G75*
G02*
X114750000Y-73270000I2500000J0D01*
G01*
%TO.C,R5*%
X125250000Y-78540000D02*
X125250000Y-81850000D01*
X125250000Y-91700000D02*
X125250000Y-88390000D01*
X123880000Y-88390000D02*
X126620000Y-88390000D01*
X126620000Y-81850000D01*
X123880000Y-81850000D01*
X123880000Y-88390000D01*
%TO.C,D7*%
X139795000Y-70710000D02*
X136705000Y-70710000D01*
X138250000Y-76260000D02*
G75*
G02*
X136705170Y-70710000I0J2990000D01*
G01*
X139794830Y-70710000D02*
G75*
G02*
X138250000Y-76260000I-1544830J-2560000D01*
G01*
X140750000Y-73270000D02*
G75*
G02*
X135750000Y-73270000I-2500000J0D01*
G01*
X135750000Y-73270000D02*
G75*
G02*
X140750000Y-73270000I2500000J0D01*
G01*
%TD*%
M02*
