%TF.GenerationSoftware,KiCad,Pcbnew,9.0.2*%
%TF.CreationDate,2025-11-24T17:40:38+01:00*%
%TF.ProjectId,juego-ping-pong,6a756567-6f2d-4706-996e-672d706f6e67,rev?*%
%TF.SameCoordinates,Original*%
%TF.FileFunction,Soldermask,Top*%
%TF.FilePolarity,Negative*%
%FSLAX46Y46*%
G04 Gerber Fmt 4.6, Leading zero omitted, Abs format (unit mm)*
G04 Created by KiCad (PCBNEW 9.0.2) date 2025-11-24 17:40:38*
%MOMM*%
%LPD*%
G01*
G04 APERTURE LIST*
G04 Aperture macros list*
%AMRoundRect*
0 Rectangle with rounded corners*
0 $1 Rounding radius*
0 $2 $3 $4 $5 $6 $7 $8 $9 X,Y pos of 4 corners*
0 Add a 4 corners polygon primitive as box body*
4,1,4,$2,$3,$4,$5,$6,$7,$8,$9,$2,$3,0*
0 Add four circle primitives for the rounded corners*
1,1,$1+$1,$2,$3*
1,1,$1+$1,$4,$5*
1,1,$1+$1,$6,$7*
1,1,$1+$1,$8,$9*
0 Add four rect primitives between the rounded corners*
20,1,$1+$1,$2,$3,$4,$5,0*
20,1,$1+$1,$4,$5,$6,$7,0*
20,1,$1+$1,$6,$7,$8,$9,0*
20,1,$1+$1,$8,$9,$2,$3,0*%
G04 Aperture macros list end*
%ADD10R,1.800000X1.800000*%
%ADD11C,1.800000*%
%ADD12C,1.600000*%
%ADD13C,2.000000*%
%ADD14RoundRect,0.250000X0.650000X1.550000X-0.650000X1.550000X-0.650000X-1.550000X0.650000X-1.550000X0*%
%ADD15O,1.800000X3.600000*%
G04 APERTURE END LIST*
D10*
%TO.C,D12*%
X170750000Y-72000000D03*
D11*
X170750000Y-74540000D03*
%TD*%
D12*
%TO.C,R7*%
X138250000Y-92740000D03*
X138250000Y-77500000D03*
%TD*%
D10*
%TO.C,D2*%
X105750000Y-72000000D03*
D11*
X105750000Y-74540000D03*
%TD*%
D12*
%TO.C,R16*%
X86750000Y-96740000D03*
X86750000Y-81500000D03*
%TD*%
%TO.C,R6*%
X131750000Y-92740000D03*
X131750000Y-77500000D03*
%TD*%
%TO.C,R14*%
X183250000Y-92740000D03*
X183250000Y-77500000D03*
%TD*%
%TO.C,R4*%
X118750000Y-92740000D03*
X118750000Y-77500000D03*
%TD*%
%TO.C,R13*%
X176750000Y-92740000D03*
X176750000Y-77500000D03*
%TD*%
%TO.C,R9*%
X151250000Y-92740000D03*
X151250000Y-77500000D03*
%TD*%
D10*
%TO.C,D10*%
X157750000Y-72000000D03*
D11*
X157750000Y-74540000D03*
%TD*%
D10*
%TO.C,D15*%
X189750000Y-72000000D03*
D11*
X189750000Y-74540000D03*
%TD*%
D13*
%TO.C,P1*%
X83000000Y-72250000D03*
X89500000Y-72250000D03*
X83000000Y-76750000D03*
X89500000Y-76750000D03*
%TD*%
D12*
%TO.C,R8*%
X144750000Y-92740000D03*
X144750000Y-77500000D03*
%TD*%
D10*
%TO.C,D8*%
X144750000Y-72000000D03*
D11*
X144750000Y-74540000D03*
%TD*%
D10*
%TO.C,D9*%
X151250000Y-72000000D03*
D11*
X151250000Y-74540000D03*
%TD*%
D12*
%TO.C,R2*%
X105750000Y-92740000D03*
X105750000Y-77500000D03*
%TD*%
D10*
%TO.C,D5*%
X125250000Y-72000000D03*
D11*
X125250000Y-74540000D03*
%TD*%
D14*
%TO.C,J1*%
X188750000Y-113000000D03*
D15*
X185250000Y-113000000D03*
X181750000Y-113000000D03*
X178250000Y-113000000D03*
X174750000Y-113000000D03*
X171250000Y-113000000D03*
X167750000Y-113000000D03*
X164250000Y-113000000D03*
X160750000Y-113000000D03*
X157250000Y-113000000D03*
X153750000Y-113000000D03*
X150250000Y-113000000D03*
X146750000Y-113000000D03*
X143250000Y-113000000D03*
X139750000Y-113000000D03*
%TD*%
D12*
%TO.C,R1*%
X99250000Y-92740000D03*
X99250000Y-77500000D03*
%TD*%
%TO.C,R15*%
X189750000Y-92740000D03*
X189750000Y-77500000D03*
%TD*%
%TO.C,R11*%
X164250000Y-92740000D03*
X164250000Y-77500000D03*
%TD*%
D13*
%TO.C,P2*%
X197250000Y-72000000D03*
X203750000Y-72000000D03*
X197250000Y-76500000D03*
X203750000Y-76500000D03*
%TD*%
D12*
%TO.C,R17*%
X199750000Y-98740000D03*
X199750000Y-83500000D03*
%TD*%
D14*
%TO.C,J2*%
X120250000Y-109500000D03*
D15*
X116750000Y-109500000D03*
X113250000Y-109500000D03*
X109750000Y-109500000D03*
X106250000Y-109500000D03*
%TD*%
D10*
%TO.C,D11*%
X164250000Y-72000000D03*
D11*
X164250000Y-74540000D03*
%TD*%
D10*
%TO.C,D13*%
X176750000Y-72000000D03*
D11*
X176750000Y-74540000D03*
%TD*%
D10*
%TO.C,D6*%
X131750000Y-72000000D03*
D11*
X131750000Y-74540000D03*
%TD*%
D12*
%TO.C,R3*%
X112250000Y-92740000D03*
X112250000Y-77500000D03*
%TD*%
D10*
%TO.C,D1*%
X99250000Y-72000000D03*
D11*
X99250000Y-74540000D03*
%TD*%
D10*
%TO.C,D4*%
X118750000Y-72000000D03*
D11*
X118750000Y-74540000D03*
%TD*%
D10*
%TO.C,D14*%
X183250000Y-72000000D03*
D11*
X183250000Y-74540000D03*
%TD*%
D12*
%TO.C,R12*%
X170750000Y-92740000D03*
X170750000Y-77500000D03*
%TD*%
%TO.C,R10*%
X157750000Y-92740000D03*
X157750000Y-77500000D03*
%TD*%
D10*
%TO.C,D3*%
X112250000Y-72000000D03*
D11*
X112250000Y-74540000D03*
%TD*%
D12*
%TO.C,R5*%
X125250000Y-92740000D03*
X125250000Y-77500000D03*
%TD*%
D10*
%TO.C,D7*%
X138250000Y-72000000D03*
D11*
X138250000Y-74540000D03*
%TD*%
M02*
